<?xml version="1.0" encoding="UTF-8"?>
<svg version="1.1" viewBox="0 0 48 48" xmlns="http://www.w3.org/2000/svg">
    <defs>
        <style>.a{fill:none;stroke:#fff;stroke-linecap:round;stroke-linejoin:round;}</style>
    </defs>
    <path class="a" d="m40.491 5.5h-32.992c-1.1043 0-1.9995 0.89543-1.9995 2v33c0 1.1046 0.8952 2 1.9995 2h32.992c1.1043 0 1.9995-0.89543 1.9995-2v-33c0-1.1046-0.8952-2-1.9995-2z" stroke="#fff" stroke-linecap="round"/>
    <ellipse cx="11.882" cy="12.183" rx="2.484" ry="2.4846" fill="none" stroke="#fff" stroke-linecap="round" stroke-linejoin="round"/>
    <ellipse cx="21.312" cy="12.716" rx="1.6841" ry="1.6845" fill="none" stroke="#fff" stroke-linecap="round" stroke-linejoin="round"/>
    <ellipse cx="31.82" cy="10.544" rx="1.6841" ry="1.6845" fill="none" stroke="#fff" stroke-linecap="round" stroke-linejoin="round"/>
    <path d="m35.368 19.453c0.17998-0.62097 0.83185-0.9464 1.4765-0.9464 0.9301 0 1.6841 0.75419 1.6841 1.6845v0c0 0.93034-0.754 1.6845-1.6841 1.6845-0.34735 0-0.56907-0.02875-0.85299-0.22889" fill="none" stroke="#fff" stroke-linecap="round" stroke-linejoin="round"/>
    <ellipse cx="37.656" cy="31.9" rx="1.6841" ry="1.6845" fill="none" stroke="#fff" stroke-linecap="round" stroke-linejoin="round"/>
    <path d="m32.728 28.301c0.06938 0.18731 0.1049 0.38548 0.1049 0.58524v0c0 0.93034-0.754 1.6845-1.6841 1.6845-0.9301 0-1.6841-0.75419-1.6841-1.6845 0-0.51482 0.23519-0.92263 0.63877-1.2421" fill="none" stroke="#fff" stroke-linecap="round" stroke-linejoin="round"/>
    <ellipse cx="30.74" cy="37.303" rx="1.6841" ry="1.6845" fill="none" stroke="#fff" stroke-linecap="round" stroke-linejoin="round"/>
    <ellipse cx="22.003" cy="38.553" rx="1.6841" ry="1.6845" fill="none" stroke="#fff" stroke-linecap="round" stroke-linejoin="round"/>
    <ellipse cx="13.245" cy="33.562" rx="1.6841" ry="1.6845" fill="none" stroke="#fff" stroke-linecap="round" stroke-linejoin="round"/>
    <ellipse cx="9.1533" cy="23.556" rx="1.6841" ry="1.6845" fill="none" stroke="#fff" stroke-linecap="round" stroke-linejoin="round"/>
    <path d="m32.428 8.9739 1.3235-3.4615" fill="none" stroke="#fff" stroke-linecap="round"/>
    <path d="m36.144 18.653-3.4683-6.6509" fill="none" stroke="#fff" stroke-linecap="round"/>
    <path d="m38.413 19.594 4.0875-1.8262" fill="none" stroke="#fff" stroke-linecap="round"/>
    <path d="m39.175 32.63 3.3126 1.6757" fill="none" stroke="#fff" stroke-linecap="round"/>
    <path d="m36.124 31.231-3.4489-1.6188" fill="none" stroke="#fff" stroke-linecap="round"/>
    <path d="m36.291 32.885-4.1779 3.4085" fill="none" stroke="#fff" stroke-linecap="round"/>
    <path d="m31.52 38.789 2.114 3.7089" fill="none" stroke="#fff" stroke-linecap="round"/>
    <path d="m23.663 38.276 5.4273-0.64995" fill="none" stroke="#fff" stroke-linecap="round"/>
    <path d="m21.77 40.229-0.02644 2.269" fill="none" stroke="#fff" stroke-linecap="round"/>
    <path d="m12.231 34.914-5.5717 7.4053" fill="none" stroke="#fff" stroke-linecap="round"/>
    <path d="m22.944 12.3 7.2272-1.3925" fill="none" stroke="#fff" stroke-linecap="round"/>
    <path d="m19.635 12.576-5.2788-0.14656" fill="none" stroke="#fff" stroke-linecap="round"/>
    <path d="m11.035 9.839-1.6432-4.3351" fill="none" stroke="#fff" stroke-linecap="round"/>
    <path d="m11.198 28.371 3.2332-8.6942h2.7727l3.4247 8.6942h-3.3893l-0.535-1.3782h-1.7669l-0.5553 1.3782z" fill="none" stroke="#fff" stroke-linecap="round" stroke-linejoin="round"/>
    <path d="m26.151 22.043s-0.90198-0.54479-2.6025-0.61049c-1.7005-0.0657-3.8299 1.2178-3.827 3.5549 0.0029 2.3371 2.1319 3.384 4.0775 3.384s2.3635-0.96322 2.3635-0.96322z" fill="none" stroke="#fff" stroke-linecap="round"/>
    <ellipse cx="23.901" cy="24.938" rx="1.3955" ry="1.2081" fill="none" stroke="#fff" stroke-linecap="round" stroke-linejoin="round"/>
    <path d="m29.116 28.371h-2.8629v-8.7937h2.8671v2.3766c2.3821-1.2073 3.4621 0.20761 3.607 1.582v4.8351h-2.6245v-4.0868c-0.30728-0.38889-0.70829-0.3637-0.97982 0z" fill="none" stroke="#fff" stroke-linecap="round"/>
    <rect x="33.526" y="21.687" width="2.8992" height="6.6843" rx=".63927" ry=".7788" fill="none" stroke="#fff" stroke-linecap="round" stroke-linejoin="round"/>
    <rect x="33.534" y="19.455" width="2.891" height="2.2319" rx=".63927" ry=".84353" fill="none" stroke="#fff" stroke-linecap="round" stroke-linejoin="round"/>
    <path d="m37.47 30.222-0.45127-8.3603" fill="none" stroke="#fff" stroke-linecap="round"/>
    <path d="m20.558 14.213-3.1693 5.9214" fill="none" stroke="#fff" stroke-linecap="round"/>
    <path d="m26.264 19.578c0.11548-0.83296 0.82742-1.4531 1.6681-1.4531 0.9301 0 1.6841 0.75419 1.6841 1.6845v0c0 0.44781-0.17664 0.68337-0.49378 0.99945" fill="none" stroke="#fff" stroke-linecap="round" stroke-linejoin="round"/>
    <path d="m26.252 19.682c0.0026-0.03494 0.0064-0.0698 0.01118-0.10451" fill="none" stroke="#fff" stroke-linecap="round" stroke-linejoin="round"/>
    <path d="m26.253 19.945c-0.0036-0.04514-0.0055-0.09041-0.0055-0.1357 0-0.04234 0.0016-0.08466 0.0048-0.12688" fill="none" stroke="#fff" stroke-linecap="round" stroke-linejoin="round"/>
    <path d="m15.911 23.606-0.34566 0.97245h0.69646z" fill="none" stroke="#fff" stroke-linecap="round"/>
    <path d="m10.79 23.161 2.6098-0.66331" fill="none" stroke="#fff" stroke-linecap="round"/>
    <path d="m7.5026 23.235-1.9959-0.49069" fill="none" stroke="#fff" stroke-linecap="round"/>
    <path d="m13.718 31.944 1.2194-4.9511" fill="none" stroke="#fff" stroke-linecap="round"/>
    <path d="m20.513 37.775-5.8185-3.3424" fill="none" stroke="#fff" stroke-linecap="round"/>
    <path d="m26.929 18.461-4.4302-4.5576" fill="none" stroke="#fff" stroke-linecap="round"/>
</svg>
