<?xml version="1.0" encoding="UTF-8"?>
<svg version="1.1" viewBox="0 0 48 48" xmlns="http://www.w3.org/2000/svg">
    <defs>
        <style>.a{fill:none;stroke:#fff;stroke-linecap:round;stroke-linejoin:round;}</style>
    </defs>
    <path class="a" d="m40.5 5.5h-33a2 1.9999 0 0 0-2 1.9999v32.998a2 1.9999 0 0 0 2 1.9999h33a2 1.9999 0 0 0 2-1.9999v-32.998a2 1.9999 0 0 0-2-1.9999z" stroke="#fff" stroke-linecap="round" stroke-linejoin="round" stroke-opacity=".97144"/>
    <g fill="none" stroke="#fff" stroke-linecap="round" stroke-linejoin="round">
        <g stroke-opacity=".97144">
            <path d="m14.373 13.079h6.2337v-7.5728"/>
            <rect x="16.191" y="20.42" width="2.928" height="9.2224" rx=".63943" ry=".77876"/>
            <path d="m32.36 26.305v2.878s-0.88892 0.49448-2.7891 0.64506c-1.9002 0.15058-3.9639-1.5258-3.8358-3.6433s0.87932-3.6139 3.5752-3.6139 3.056 1.6136 3.0497 3.7341z"/>
            <path d="m28.749 25.04c0.10875-0.3823 0.78567-0.37825 0.91705 0z"/>
            <path d="m31.418 26.854c-0.5755 0.66017-2.9178 0.3046-2.9628 0z"/>
            <rect x="10.429" y="10.377" width="3.9391" height="6.4918" rx=".74209" ry=".77876"/>
            <rect x="12.71" y="33.62" width="6.3147" height="3.9553" rx=".74209" ry=".77876"/>
            <rect x="33.61" y="8.0748" width="3.8894" height="3.9243" rx=".74209" ry=".77876"/>
            <rect x="26.703" y="15.128" width="3.8894" height="3.9243" rx=".74209" ry=".77876"/>
            <rect x="31.27" y="36.018" width="3.8894" height="3.9243" rx=".74209" ry=".77876"/>
            <path d="m11.844 10.377v-4.8714"/>
            <path d="m12.702 35.667h-7.1954"/>
            <path d="m14.18 37.588v4.9124"/>
            <path d="m34.238 39.943v2.5557"/>
            <path d="m37.503 9.3516h4.9937"/>
            <path d="m33.606 10.41h-5.3433v4.7239"/>
            <path d="m13.087 29.736h-4.0515c-0.35425 0-0.63943-0.34733-0.63943-0.77876v-7.4544c0-0.43143 0.28519-0.77876 0.63943-0.77876h4.0515c2.705 0 3.3117 3.8443 1.546 4.0726 2.3263 0.31649 1.6076 4.9393-1.546 4.9393z"/>
            <path d="m25.732 26.296v2.878s-0.79564 0.49448-2.6958 0.64506-4.0429-1.5258-3.9148-3.6433 0.95834-3.6139 3.6542-3.6139 2.9627 1.6136 2.9564 3.7341z"/>
            <path d="m22.215 25.032c0.10875-0.3823 0.78567-0.37825 0.91705 0z"/>
            <path d="m24.884 26.846c-0.5755 0.66017-2.9178 0.3046-2.9628 0z"/>
            <path d="m35.398 28.83c0 0.43143-0.28519 0.77876-0.63943 0.77876h-1.63c-0.35425 0-0.63943-0.34732-0.63943-0.77876v-5.6512c0-0.43143 0.28519-0.77876 0.63943-0.77876h1.63c0.35425 0 0.63943 0.34733 0.63943 0.77876 0.32864-0.63375 3.3009-1.3044 4.1061 1.6713v4.0348c0.04688 0.42106-0.08145 0.80099-0.67432 0.67428h-1.9157c-0.36792-0.03311-0.47592-0.31547-0.46122-0.71548v-3.5901h-1.1067z"/>
            <path d="m18.411 13.085v7.3363"/>
            <path d="m23.585 22.613v-4.3869h-5.1721"/>
            <path d="m28.101 19.064v3.6333"/>
            <path d="m17.289 29.65v3.9718"/>
            <path d="m23.574 29.766v8.1723h7.6941"/>
            <path d="m34.148 29.614v6.3996"/>
            <path d="m34.149 32.711h8.3486"/>
            <path d="m35.116 12.002v4.9917h2.6165v5.5902"/>
        </g>
        <path d="m11.545 24.144v-0.70053c1.5113 0 1.4692 0.70053 0 0.70053z"/>
        <path d="m11.545 26.969v-0.70053c1.9566 0.0337 1.9587 0.70053 0 0.70053z"/>
    </g>
</svg>
