<?xml version="1.0" encoding="UTF-8"?>
<svg version="1.1" viewBox="0 0 48 48" xmlns="http://www.w3.org/2000/svg">
    <defs>
        <style>.a{fill:none;stroke:#fff;stroke-linecap:round;stroke-linejoin:round;}</style>
    </defs>
    <g fill="none" stroke="#fff" stroke-linecap="round" stroke-linejoin="round" stroke-opacity=".96882">
        <path d="m42.794 9.2267c-0.18774-0.93977-0.83242-1.6636-1.8557-2.2085 0.3586-0.59898 0.69237-1.1962 0.10053-1.7282 0.47952 0.86562-0.15155 1.298-0.96928 1.6575-1.5952-1.9046-2.8066-1.5401-3.8039 0.089652-1.2483-1.5424-2.3028-0.94467-3.2727 0.58939-0.50789-0.75158-1.0468-1.5103-1.7448-2.3053 1.173 2.1652-2.6289 2.9852-1.739-0.18209-1.2845 2.3074-2.0007 1.2777-2.6764 0.010133l1.3514 1.9344-0.93826 0.62691c0.63247 0.36447 1.2257 0.80465 1.5896 1.6875 0.83472-0.18262 1.6771-0.29041 2.5625 0.02167 0.98253-0.48969 1.4198-1.2917 2.056-1.9798 0.02451 2.0668 1.8354 2.1857 1.3675 1.0842"/>
        <path d="m36.266 7.0371c0.6915 2.7721 2.8484 2.4777 2.4053 1.0101"/>
        <path d="m27.246 7.7106c-0.4344-0.42949-0.75722-0.82519-1.3624-1.3064-1.2205-1.4278-2.4812-0.54815-2.5805 0.73606s1.8749 1.6107 1.8441 0.58956"/>
        <path d="m40.07 6.9474c0.9119 1.4029 1.6948 2.7467 0.19458 3.0423-1.053 0.25595-1.01 0.88541-1.0334 1.4923 0.26407 0.5224 0.52701 1.0465 1.041 1.1986 0.70702-0.12118 0.84296-0.51739 1.0339-0.88708l-0.54987-0.57598c1.0389 0.8586 2.2177 3.0822 1.0666 3.3504-1.0876-0.07295-0.42827 1.2371-0.4963 1.9713 0.74219 0.30829 1.2673 0.71147 1.362 1.3027-0.92323 1.1812-1.7261 0.7721-2.3137-0.34749"/>
        <path d="m40.183 10.029c0.79898-0.22312 1.5379-0.78818 2.6656 0.85961"/>
        <path d="m24.41 5.8099h-19.041"/>
        <path d="m23.328 7.4417h-17.942"/>
        <path d="m7.4256 7.4393c-0.89539 0.80223-1.7742 1.6138-2.3172 2.6134l1.4831 1.2923-0.93316 0.83277 2.4145 2.0732-2.7042 2.8121c-0.42357 2.8502 2.1503 2.2435 1.1971 0.63817"/>
        <path d="m6.6566 15.756-1.7688-0.88348 1.6485-1.98c0.73279-0.20946 1.663-0.1494 2.0048-0.89272"/>
        <path d="m6.5914 11.345c0.58618-0.45198 1.4926-0.85647 0.45685-1.549"/>
        <path d="m5.314 38.821c0.18774 0.93977 0.83242 1.6636 1.8557 2.2085-0.3586 0.59898-0.69237 1.1962-0.10053 1.7282-0.47952-0.86562 0.15155-1.298 0.96928-1.6575 1.5952 1.9046 2.8066 1.5401 3.8039-0.08965 1.2483 1.5424 2.3028 0.94467 3.2727-0.58939 0.50789 0.75158 1.0468 1.5103 1.7448 2.3053-1.173-2.1652 2.6289-2.9852 1.739 0.18209 1.2845-2.3074 2.0007-1.2777 2.6764-0.01013l-1.3514-1.9344 0.93826-0.62691c-0.63247-0.36447-1.2257-0.80465-1.5896-1.6875-0.83472 0.18262-1.6771 0.29041-2.5625-0.02167-0.98253 0.48969-1.4198 1.2917-2.056 1.9798-0.02451-2.0668-1.8354-2.1857-1.3675-1.0842"/>
        <path d="m11.842 41.011c-0.6915-2.7721-2.8484-2.4777-2.4053-1.0101"/>
        <path d="m20.862 40.337c0.4344 0.42949 0.75722 0.82519 1.3624 1.3064 1.2205 1.4278 2.4812 0.54815 2.5805-0.73606s-1.8749-1.6107-1.8441-0.58956"/>
        <path d="m8.038 41.101c-0.9119-1.4029-1.6948-2.7467-0.19458-3.0423 1.053-0.25595 1.01-0.88541 1.0334-1.4923-0.26407-0.5224-0.52701-1.0465-1.041-1.1986-0.70702 0.12118-0.84296 0.51739-1.0339 0.88708l0.54987 0.57598c-1.0389-0.8586-2.2177-3.0822-1.0666-3.3504 1.0876 0.07295 0.42827-1.2371 0.4963-1.9713-0.74219-0.30829-1.2673-0.71147-1.362-1.3027 0.92323-1.1812 1.7261-0.7721 2.3137 0.34749"/>
        <path d="m7.925 38.019c-0.79898 0.22312-1.5379 0.78818-2.6656-0.85961"/>
        <path d="m23.698 42.238h19.041"/>
        <path d="m24.78 40.606h17.942"/>
        <path d="m14.013 22.374c0.57402 0.40307-0.03054 1.4126-1.3435 1.3619-1.3929-0.2549-1.4492-2.4487 0.47022-2.9012h2.0101c1.3013 2.8576 1.2484 6.8454 4.7085 9.0285 1.5701-2.2212 3.1046-4.1686 3.7895-6.4106 0.3378-0.5039 0.30683-0.48286 0.67472 0 0.78163 2.5086 2.2995 4.4728 3.9072 6.4203 3.1311-2.4196 3.3556-6.3373 4.8692-9.035h1.8162c2.4631 0.72282 1.5226 2.666 0.44172 2.8502-1.4928 0.08027-1.7911-0.82431-1.1992-1.321"/>
        <path d="m11.72 22.037c0.0746-0.6511 0.24341-1.6126 1.2525-1.9514h3.9192c1.8092 1.8396 1.2203 3.9983 2.8109 5.7615 1.0815-1.3635 1.9688-2.952 2.6905-4.7324 1.2887-1.2473 1.8522-1.1887 3.1561 0 1.0262 1.7123 1.5395 3.2744 2.8177 4.7157 1.4352-1.7454 0.94566-4.0728 2.8135-5.7877h3.9005c1.1183 0.47567 1.1618 1.2959 1.3946 2.0772"/>
        <path d="m40.673 40.566c0.89539-0.80223 1.7742-1.6138 2.3172-2.6134l-1.4831-1.2923 0.93316-0.83277-2.4145-2.0732 2.7042-2.8121c0.42357-2.8502-2.1503-2.2435-1.1971-0.63817"/>
        <path d="m41.343 32.387 1.7688 0.88348-1.6485 1.98c-0.73279 0.20946-1.663 0.1494-2.0048 0.89272"/>
        <path d="m41.507 36.66c-0.58618 0.45198-1.4926 0.85647-0.45685 1.549"/>
    </g>
</svg>
