<?xml version="1.0" encoding="UTF-8"?>
<svg version="1.1" viewBox="0 0 48 48" xmlns="http://www.w3.org/2000/svg">
    <defs>
        <style>.a{fill:none;stroke:#fff;stroke-linecap:round;stroke-linejoin:round;}</style>
    </defs>
    <g fill="none" stroke="#fff" stroke-linecap="round" stroke-linejoin="round">
        <path d="m26.516 22.242h1.6406"/>
        <path d="m39.445 26.401h1.6406"/>
        <path d="m39.445 18.501h1.6406"/>
        <path d="m35.063 14.75h1.6406"/>
        <path d="m24.992 18.501h3.1647"/>
        <path d="m16.851 18.501h4.7612"/>
        <path d="m8.7461 18.501h4.7612"/>
        <path d="m8.7461 30.349h4.7612"/>
        <path d="m16.851 30.349h4.7612"/>
        <path d="m24.992 34.09h4.7612"/>
        <path d="m37.921 22.242h3.1647"/>
        <path d="m37.921 30.349h3.1647"/>
        <path d="m24.992 30.349h3.1647"/>
        <path d="m30.821 18.501h1.6406"/>
        <path d="m26.516 26.401h1.6406"/>
        <path d="m18.447 26.401h1.6406"/>
        <path d="m10.276 26.401h1.6406"/>
        <path d="m18.447 22.242h3.1647"/>
        <path d="m10.343 22.242h3.1647"/>
        <path d="m23.38 31.369v2.8808"/>
        <path d="m5.5 23.52v2.8808"/>
        <path d="m13.507 23.52v2.8808"/>
        <path d="m21.612 23.52v2.8808"/>
        <path d="m29.94 23.52v2.8808"/>
        <path d="m37.921 23.52v2.8808"/>
        <path d="m42.5 19.557v2.8808"/>
        <path d="m33.796 15.621v2.8808"/>
        <path d="m37.921 15.621v2.8808"/>
        <path d="m42.5 27.468v2.8808"/>
        <path d="m6.9355 21.761 0.8211-1.9112"/>
        <path d="m14.985 21.66 0.8211-1.9112"/>
        <path d="m23.023 21.696 0.8211-1.9112"/>
        <path d="m31.377 33.395 0.8211-1.9112"/>
        <path d="m36.294 29.526-0.8211-1.9112"/>
        <path d="m23.844 29.528-0.8211-1.9112"/>
        <path d="m15.806 29.453-0.8211-1.9112"/>
        <path d="m7.7566 29.399-0.8211-1.9112"/>
        <path d="m30.185 29.346-0.69793 1.0035"/>
        <path d="m29.94 19.447-0.5439 0.5196"/>
        <path d="m8.9131 23.217c-0.71438 1.0184-0.69228 2.3121 0.019875 3.1839"/>
        <path d="m17.102 23.217c-0.71438 1.0184-0.69228 2.3121 0.01988 3.1839"/>
        <path d="m25.188 23.217c-0.71438 1.0184-0.69228 2.3121 0.01987 3.1839"/>
        <path d="m33.796 19.598v2.8808"/>
        <path d="m33.796 23.52v2.8808"/>
        <path d="m33.796 27.468v2.8808"/>
    </g>
</svg>
