<?xml version="1.0" encoding="UTF-8"?>
<svg version="1.1" viewBox="0 0 48 48" xmlns="http://www.w3.org/2000/svg">
    <defs>
        <style>.a{fill:none;stroke:#fff;stroke-linecap:round;stroke-linejoin:round;}</style>
    </defs>
    <circle class="a" cx="24" cy="24" r="21.5"/>
    <path d="m19.784 18.322s-1.2227-1.5355-5.4692-1.5355c-6.6228 0-7.8518 4.222-7.8518 9.5616 0 5.1142 1.8185 8.8594 7.4114 8.9148 5.1291 0.05078 5.6008-1.1878 6.1861-1.6494 0.54047-0.54577-0.73414-2.4055-1.3637-2.3033-0.52831 0.30502-0.97753 0.92862-3.8624 0.95748-2.5392 0.0254-4.5345-0.58502-4.5345-5.8216 0-3.6777 0.56395-6.6295 4.0647-6.6295 1.4085 0 2.5609 0.04018 2.8132 0.65966 0 1.4486 0.0055 1.4716 0.0055 2.4438l2.6056-0.51318z" fill="none" stroke="#fff"/>
    <path d="m35.719 14.78v3.5551l2.9392-0.7413v-5.4091s-2.2352-1.4303-6.4606-1.4001c-4.2254 0.03023-7.9705 2.5961-8.0005 6.9255-0.03008 4.3293 1.3619 4.483 3.3496 5.8051l5.8986 2.5357c1.0021 0.55995 2.0168 1.4142 2.0168 3.015s-2.0922 3.0769-4.2384 3.0769-2.8412 0.05009-3.8409-0.70626v-3.3301l-3.2146 0.86636v5.0016c2.1253 1.1644 2.1901 1.8068 6.6231 1.8068s8.7013-2.3372 8.7883-6.4601c0.08699-4.123-1.2548-4.4821-2.318-5.4768l-7.0275-3.3978c-0.54751-0.29964-2.3256-0.65554-2.3256-2.98s2.5378-3.4176 3.9851-3.4176 2.3602 0.20013 3.8256 0.73131z" fill="none" stroke="#fff"/>
</svg>
