<?xml version="1.0" encoding="UTF-8"?>
<svg version="1.1" viewBox="0 0 48 48" xmlns="http://www.w3.org/2000/svg">
    <defs>
        <style>.a{fill:none;stroke:#fff;stroke-linecap:round;stroke-linejoin:round;}</style>
    </defs>
    <path d="m13 6.9017c0.57871-3.251 22.832-3.153 24 0v34.417c-1.779 2.8526-22.688 2.9644-24 0z" fill="none" stroke="#fff" stroke-linecap="round" stroke-linejoin="round" stroke-miterlimit="4.48"/>
    <rect x="13.484" y="8.2091" width="23.049" height="31.44" fill="none" stroke="#fff" stroke-linecap="round" stroke-linejoin="round" stroke-miterlimit="4.48"/>
    <path d="m23.204 6.7073h3.6881" fill="none" stroke="#fff" stroke-linecap="round" stroke-linejoin="round" stroke-miterlimit="4.48"/>
    <path d="m23.823 24.406 5.5089-5.3828h0.11956v4.1796l4.3283-4.1796h0.32639v5.3828h-0.98363v-3.4103l-3.5646 3.4103h-1.1163v-3.3619l-3.4902 3.3619z" fill="none" stroke="#fff" stroke-linecap="round" stroke-linejoin="round" stroke-miterlimit="4.48"/>
    <rect x="20.982" y="17.71" width="1.3541" height=".57186" fill="none" stroke="#fff" stroke-linecap="round" stroke-linejoin="round" stroke-miterlimit="4.48"/>
    <rect x="20.903" y="19.754" width="1.4158" height="4.4788" fill="none" stroke="#fff" stroke-linecap="round" stroke-linejoin="round" stroke-miterlimit="4.48"/>
    <path d="m22.319 20 7.5629-7.3137v-0.90436h-3.3606l-7.0748 6.9376v-6.9376h-3.5438v13.341h1.119l3.8816-3.7537" fill="none" stroke="#fff" stroke-linecap="round" stroke-linejoin="round" stroke-miterlimit="4.48"/>
    <path d="m13.124 36.788h23.521" fill="none" stroke="#fff" stroke-linecap="round" stroke-linejoin="round" stroke-miterlimit="4.48"/>
    <path d="m15.614 38.168h0.34158" fill="none" stroke="#fff" stroke-linecap="round" stroke-linejoin="round" stroke-miterlimit="4.48"/>
    <path d="m17.69 38.168h0.34158" fill="none" stroke="#fff" stroke-linecap="round" stroke-linejoin="round" stroke-miterlimit="4.48"/>
    <path d="m19.765 38.168h0.34158" fill="none" stroke="#fff" stroke-linecap="round" stroke-linejoin="round" stroke-miterlimit="4.48"/>
    <path d="m21.841 38.168h0.34158" fill="none" stroke="#fff" stroke-linecap="round" stroke-linejoin="round" stroke-miterlimit="4.48"/>
    <path d="m23.916 38.168h0.34158" fill="none" stroke="#fff" stroke-linecap="round" stroke-linejoin="round" stroke-miterlimit="4.48"/>
    <path d="m25.992 38.168h0.34158" fill="none" stroke="#fff" stroke-linecap="round" stroke-linejoin="round" stroke-miterlimit="4.48"/>
    <path d="m28.067 38.168h0.34158" fill="none" stroke="#fff" stroke-linecap="round" stroke-linejoin="round" stroke-miterlimit="4.48"/>
</svg>
