<?xml version="1.0" encoding="UTF-8"?>
<svg version="1.1" viewBox="0 0 48 48" xmlns="http://www.w3.org/2000/svg">
    <defs>
        <style>.a{fill:none;stroke:#fff;stroke-linecap:round;stroke-linejoin:round;}</style>
    </defs>
    <path class="a" d="m40.5 5.5h-33a2 2 0 0 0-2 2v33a2 2 0 0 0 2 2h33a2 2 0 0 0 2-2v-33a2 2 0 0 0-2-2z"/>
    <rect x="10.608" y="19.748" width="27.801" height="15.355" rx="1.7831" ry="1.6402" fill="none" stroke="#fff" stroke-linecap="round" stroke-linejoin="round" stroke-miterlimit="8" stroke-width=".95316"/>
    <path d="m21.357 24.35h5.5926c-2.9421 2.5412-3.6401 5.7636-3.8384 7.9002" fill="none" stroke="#fff" stroke-linecap="round" stroke-linejoin="round" stroke-width="1px"/>
    <path d="m23.646 11.456v4.2193h2.272" fill="none" stroke="#fff" stroke-linecap="round" stroke-linejoin="round" stroke-miterlimit="4.6667"/>
    <path d="m33.185 11.456h-2.9277v4.2193h2.9277" fill="none" stroke="#fff" stroke-linecap="round" stroke-linejoin="round" stroke-miterlimit="4.6667"/>
    <path d="m32.808 13.45h-2.3139" fill="none" stroke="#fff" stroke-linecap="round" stroke-linejoin="round" stroke-miterlimit="4.6667"/>
    <path d="m26.102 11.456 1.4714 4.2195 1.4293-4.2195" fill="none" stroke="#fff" stroke-linecap="round" stroke-linejoin="round" stroke-miterlimit="4.6667"/>
    <ellipse cx="20.646" cy="13.565" rx="1.5847" ry="2.1097" fill="none" stroke="#fff" stroke-linecap="round" stroke-linejoin="round" stroke-miterlimit="4.6667"/>
    <path d="m17.754 12.34c-0.08385-0.42368-0.52529-0.72052-1.3507-0.88117-0.58305-0.02874-1.1442 0.16264-1.2232 1.1825 0.09894 0.58499 0.45561 0.82566 1.1584 0.89852 1.2069 0.33107 1.234 0.54887 1.3163 1.1632-0.10683 0.59506-0.32985 0.9624-1.1906 0.97241-0.7511-0.05752-1.1679-0.35077-1.4264-0.75571" fill="none" stroke="#fff" stroke-linecap="round" stroke-linejoin="round" stroke-miterlimit="4.6667"/>
    <path d="m11.962 23.457c0.02979-1.2388 0.34418-2.3175 1.4142-2.4395" fill="none" stroke="#fff" stroke-linecap="round" stroke-linejoin="round" stroke-width="1px"/>
    <path d="m37.011 23.487c-0.02979-1.2388-0.34418-2.3175-1.4142-2.4395" fill="none" stroke="#fff" stroke-linecap="round" stroke-linejoin="round" stroke-width="1px"/>
</svg>
