<?xml version="1.0" encoding="UTF-8"?>
<svg version="1.1" viewBox="0 0 48 48" xmlns="http://www.w3.org/2000/svg">
    <defs>
        <style>.a{fill:none;stroke:#fff;stroke-linecap:round;stroke-linejoin:round;}</style>
    </defs>
    <g fill="none" stroke-linecap="round" stroke-linejoin="round">
        <g stroke="#fff">
            <circle cx="24" cy="24" r="21.5"/>
            <path d="m12.54 5.8196c9.1842 5.9535 19.447 9.044 30.575 8.3487"/>
            <path d="m22.043 2.5876c4.2517 3.3972 9.4508 4.4266 14.995 4.3153"/>
            <path d="m6.0378 12.192c11.686 8.8594 24.789 12.463 39.454 11.024"/>
            <path d="m2.7815 20.554c9.2123 7.2777 27.822 16.05 41.435 10.801"/>
            <path d="m3.175 29.353c10.641 8.7231 23.923 12.744 36.003 9.8713"/>
            <path d="m7.3121 37.553c7.5427 5.254 15.853 8.0488 24.939 6.3057"/>
            <path d="m19.831 2.9113c-8.4887 3.8417-15.035 10.157-17.328 20.78"/>
            <path d="m26.958 2.7099c-17.568 5.9948-24.568 28.167-17.109 37.445"/>
            <path d="m29.622 3.2467c-0.79919 14.918-4.5928 28.204-10.203 41.761"/>
            <path d="m31.213 3.7449c9.3221 14.606 2.0459 34.763-6.3501 41.74"/>
            <path d="m32.571 4.2924c9.5578 9.9611 14.583 25.508-0.3197 39.566"/>
            <path d="m28.81 3.0487c-12.718 9.9145-19.163 33.692-13.552 40.589"/>
            <g stroke-width="1px">
                <path d="m17.325 10.115c-1.6826 1.6167-3.0188 3.3657-4.3174 5.2153 1.1131 0.6328 2.1951 1.2738 3.5066 1.8544 0.98625-1.9964 2.1373-3.9456 3.4527-5.8478-0.90367-0.38279-1.7885-0.78561-2.6419-1.2219z"/>
                <path d="m22.334 12.229c-1.1912 2.0475-2.3913 4.0985-3.32 6.0458 2.2586 0.89787 4.5296 1.7431 6.8717 2.2869 0.47352-2.1118 0.93207-4.2757 1.336-6.6296-1.5952-0.51392-3.1825-1.0155-4.8876-1.7032z"/>
                <path d="m11.651 17.331-2.629 6.2218 4.3737 2.2025 2.13-6.2696z"/>
                <path d="m36.593 24.762c-0.2992 2.1133-1.0372 4.8685-1.7144 6.9413 1.4211 0.01598 3.1636-0.22851 4.4125-0.36966 0.83386-2.1904 0.90231-4.3999 1.138-6.49-1.2255 0.04162-2.6773-0.0179-3.8361-0.08168z"/>
                <path d="m41.187 15.483c0.96278 2.2079 1.4128 4.4916 1.6027 6.8137l1.4672-0.11861c-0.29718-2.3876-0.88433-4.6474-1.8532-6.7388z"/>
                <path d="m41.178 33.458c-0.50578 1.9079-1.6633 3.3998-2.784 4.915 1.5961-1.614 2.5415-3.3246 3.7161-5.131z"/>
            </g>
        </g>
        <path d="m22.657 40.429-1.0218 2.2275c1.156 0.24102 2.3263 0.47217 3.7952 0.49698 0.80229-0.59476 1.2439-1.2843 1.7971-1.9445-1.5058-0.19618-2.9913-0.46953-4.5705-0.77994z" stroke="#fefefe" stroke-width="1px"/>
        <g stroke="#fff" stroke-width="1px">
            <path d="m14.519 37.808c0.15994 0.9772 0.29136 1.9879 0.64216 2.7411 1.3675 0.62418 2.6333 1.0805 4.0008 1.4826l0.83534-2.155c-1.8992-0.6065-3.6223-1.2426-5.4783-2.0688z"/>
            <path d="m35.042 9.0541 1.1016 3.9374 1.4358 0.07688z"/>
            <path d="m8.7259 34.912c0.20909 0.77216 0.325 1.4374 0.89491 2.6235 0.78867 0.50123 1.7084 1.214 2.5883 1.5955-0.11612-0.70543-0.32288-1.6826-0.30205-2.513-1.1272-0.56078-2.1555-1.1332-3.1812-1.706z"/>
        </g>
    </g>
</svg>
