<?xml version="1.0" encoding="UTF-8" standalone="no"?>
<svg
   xmlns:dc="http://purl.org/dc/elements/1.1/"
   xmlns:cc="http://creativecommons.org/ns#"
   xmlns:rdf="http://www.w3.org/1999/02/22-rdf-syntax-ns#"
   xmlns:svg="http://www.w3.org/2000/svg"
   xmlns="http://www.w3.org/2000/svg"
   xmlns:sodipodi="http://sodipodi.sourceforge.net/DTD/sodipodi-0.dtd"
   xmlns:inkscape="http://www.inkscape.org/namespaces/inkscape"
   version="1.1"
   viewBox="0 0 48 48"
   id="svg8662"
   sodipodi:docname="droid48sx.svg"
   inkscape:version="1.0.2 (e86c870879, 2021-01-15)">
  <metadata
     id="metadata8666">
    <rdf:RDF>
      <cc:Work
         rdf:about="">
        <dc:format>image/svg+xml</dc:format>
        <dc:type
           rdf:resource="http://purl.org/dc/dcmitype/StillImage" />
        <dc:title></dc:title>
      </cc:Work>
    </rdf:RDF>
  </metadata>
  <sodipodi:namedview
     pagecolor="#666666"
     bordercolor="#666666"
     borderopacity="1"
     objecttolerance="10"
     gridtolerance="10"
     guidetolerance="10"
     inkscape:pageopacity="0"
     inkscape:pageshadow="2"
     inkscape:window-width="3840"
     inkscape:window-height="2096"
     id="namedview8664"
     showgrid="false"
     inkscape:zoom="4.8828125"
     inkscape:cx="24"
     inkscape:cy="24"
     inkscape:window-x="0"
     inkscape:window-y="27"
     inkscape:window-maximized="1"
     inkscape:current-layer="svg8662" />
  <defs
     id="defs8638">
    <style
       id="style8636">.a{fill:none;stroke:#fff;stroke-linecap:round;stroke-linejoin:round;}</style>
  </defs>
  <path
     class="a"
     d="m40.5 5.5h-33a2 2 0 0 0-2 2v33a2 2 0 0 0 2 2h33a2 2 0 0 0 2-2v-33a2 2 0 0 0-2-2z"
     id="path8640" />
  <rect
     x="10.608"
     y="19.748"
     width="27.801"
     height="15.355"
     rx="1.7831"
     ry="1.6402"
     fill="none"
     stroke="#fff"
     stroke-linecap="square"
     stroke-miterlimit="8"
     stroke-width=".95316"
     id="rect8642"
     style="stroke-linejoin:round;stroke-linecap:round" />
  <path
     d="m21.357 24.35h5.5926c-2.9421 2.5412-3.6401 5.7636-3.8384 7.9002"
     fill="none"
     stroke="#fff"
     stroke-linejoin="bevel"
     stroke-width="1px"
     id="path8644"
     style="stroke-linejoin:round;stroke-linecap:round" />
  <path
     d="m 23.645945,11.455811 v 4.219331 h 2.272049"
     fill="none"
     stroke="#ffffff"
     stroke-width="0.999999px"
     id="path8646"
     style="stroke-width:1;stroke-linecap:round;stroke-linejoin:round;stroke-miterlimit:4.66667;stroke-dasharray:none" />
  <path
     d="m 33.18497,11.455811 h -2.927688 v 4.219331 h 2.927688"
     fill="none"
     stroke="#ffffff"
     stroke-width="1px"
     id="path8648"
     style="stroke-width:1;stroke-linecap:round;stroke-linejoin:round;stroke-miterlimit:4.66667;stroke-dasharray:none" />
  <path
     d="M 32.807778,13.44956 H 30.493843"
     fill="none"
     stroke="#ffffff"
     stroke-width="1px"
     id="path8650"
     style="stroke-width:1;stroke-linecap:round;stroke-linejoin:round;stroke-miterlimit:4.66667;stroke-dasharray:none" />
  <path
     d="m 26.101636,11.45578 1.471388,4.219479 1.429277,-4.219479"
     fill="none"
     stroke="#ffffff"
     stroke-linejoin="bevel"
     stroke-width="0.999997px"
     id="path8652"
     style="stroke-width:1;stroke-linecap:round;stroke-linejoin:round;stroke-miterlimit:4.66667;stroke-dasharray:none" />
  <ellipse
     cx="20.646421"
     cy="13.565476"
     rx="1.5846583"
     ry="2.1096659"
     fill="none"
     stroke="#ffffff"
     stroke-linecap="square"
     stroke-linejoin="bevel"
     stroke-miterlimit="8"
     stroke-width="0.80471"
     id="ellipse8654"
     style="stroke-width:1;stroke-linecap:round;stroke-linejoin:round;stroke-miterlimit:4.66667;stroke-dasharray:none" />
  <path
     d="m 17.753862,12.339748 c -0.08385,-0.423679 -0.525288,-0.720525 -1.350686,-0.881171 -0.583049,-0.02874 -1.144188,0.16264 -1.223229,1.182461 0.09894,0.584992 0.455614,0.825661 1.158374,0.898515 1.206903,0.331068 1.234039,0.548874 1.316345,1.163178 -0.10683,0.595065 -0.329846,0.962404 -1.190576,0.972411 -0.751097,-0.05752 -1.167945,-0.350772 -1.42635,-0.755711"
     fill="none"
     stroke="#ffffff"
     stroke-linecap="round"
     stroke-width="0.98119px"
     id="path8656"
     style="stroke-width:1;stroke-linecap:round;stroke-linejoin:round;stroke-miterlimit:4.66667;stroke-dasharray:none" />
  <path
     d="m11.962 23.457c0.02979-1.2388 0.34418-2.3175 1.4142-2.4395"
     fill="none"
     stroke="#fff"
     stroke-width="1px"
     id="path8658"
     style="stroke-linejoin:round;stroke-linecap:round" />
  <path
     d="m37.011 23.487c-0.02979-1.2388-0.34418-2.3175-1.4142-2.4395"
     fill="none"
     stroke="#fff"
     stroke-width="1px"
     id="path8660"
     style="stroke-linejoin:round;stroke-linecap:round" />
</svg>
