<?xml version="1.0" encoding="UTF-8"?>
<svg version="1.1" viewBox="0 0 48 48" xmlns="http://www.w3.org/2000/svg">
    <defs>
        <style>.a{fill:none;stroke:#fff;stroke-linecap:round;stroke-linejoin:round;}</style>
    </defs>
    <path class="a" d="m40.5 5.5h-33a2 2 0 0 0-2 2v33a2 2 0 0 0 2 2h33a2 2 0 0 0 2-2v-33a2 2 0 0 0-2-2z" stroke="#fff"/>
    <g fill="none" stroke="#fff" stroke-linecap="round" stroke-linejoin="round" stroke-width="1px">
        <path d="m23.342 24.694c-2.0003-1.929-4.2735-3.7408-6.8782-3.7093-2.0903 0.02528-4.5086 1.2411-5.4463 3.1094-0.82633 1.6465-0.75914 4.3249 0.67125 5.4858 1.3416 1.0889 3.8214 0.64424 5.1649-0.44241 1.0258-0.82968 1.7129-2.5904 1.1547-3.7858-0.39071-0.83665-1.6456-1.2653-2.5504-1.0812-0.62788 0.12777-1.3227 0.74163-1.3358 1.3822-0.01412 0.68973 0.68715 1.5105 1.3761 1.5459 0.57171 0.02934 1.2672-1.1591 1.2672-1.1591"/>
        <path d="m18.137 22.84c1.0381 0.92744 2.7455 0.84741 2.966 3.2757-1.0354 1.7422-2.297 2.6731-3.446 4.0079-0.94754 0.9015-1.9957 1.3835-3.0448 1.8617-1.2715 0.43838-2.3377 1.0431-2.0203 2.769-1.4826 0.6795-2.2545 1.8098-3.1799 2.8427l-3.2972 2.865"/>
        <path d="m23.342 24.694c1.929 2.0003 3.7408 4.2735 3.7093 6.8782-0.02528 2.0903-1.2411 4.5086-3.1094 5.4463-1.6465 0.82633-4.3249 0.75914-5.4858-0.67125-1.0889-1.3416-0.64424-3.8214 0.44241-5.1649 0.82968-1.0258 2.5904-1.7129 3.7858-1.1547 0.83665 0.39071 1.2653 1.6456 1.0812 2.5504-0.12777 0.62788-0.74163 1.3227-1.3822 1.3358-0.68973 0.01412-1.5105-0.68715-1.5459-1.3761-0.02934-0.57171 1.1591-1.2672 1.1591-1.2672"/>
        <path d="m25.074 29.766c-0.92744-1.0381-0.84741-2.7455-3.2757-2.966-1.7422 1.0354-2.6731 2.297-4.0079 3.446-0.9015 0.94754-1.3835 1.9957-1.8617 3.0448-0.43838 1.2715-1.0431 2.3377-2.769 2.0203-0.6795 1.4826-1.8098 2.2545-2.8427 3.1799l-2.3663 3.4409"/>
        <path d="m24.656 23.38c2.0003 1.929 4.2735 3.7408 6.8782 3.7093 2.0903-0.02528 4.5086-1.2411 5.4463-3.1094 0.82633-1.6465 0.75914-4.3249-0.67125-5.4858-1.3416-1.0889-3.8214-0.64424-5.1649 0.44241-1.0258 0.82968-1.7129 2.5904-1.1547 3.7858 0.39071 0.83665 1.6456 1.2653 2.5504 1.0812 0.62788-0.12777 1.3227-0.74163 1.3358-1.3822 0.01412-0.68973-0.68715-1.5105-1.3761-1.5459-0.57171-0.02934-1.2672 1.1591-1.2672 1.1591"/>
        <path d="m29.862 25.235c-1.0381-0.92744-2.7455-0.84741-2.966-3.2757 1.0354-1.7422 2.297-2.6731 3.446-4.0079 0.94754-0.9015 1.9957-1.3835 3.0448-1.8617 1.2715-0.43838 2.3377-1.0431 2.0203-2.769 1.4826-0.6795 2.2545-1.8098 3.1799-2.8427l3.7607-3.3972"/>
        <path d="m24.656 23.38c-1.929-2.0003-3.7408-4.2735-3.7093-6.8782 0.02528-2.0903 1.2411-4.5086 3.1094-5.4463 1.6465-0.82633 4.3249-0.75914 5.4858 0.67125 1.0889 1.3416 0.64424 3.8214-0.44241 5.1649-0.82968 1.0258-2.5904 1.7129-3.7858 1.1547-0.83665-0.39071-1.2653-1.6456-1.0812-2.5504 0.12777-0.62788 0.74163-1.3227 1.3822-1.3358 0.68973-0.01412 1.5105 0.68715 1.5459 1.3761 0.02934 0.57171-1.1591 1.2672-1.1591 1.2672"/>
        <path d="m22.925 18.309c0.92744 1.0381 0.84741 2.7455 3.2757 2.966 1.7422-1.0354 2.6731-2.297 4.0079-3.446 0.9015-0.94754 1.3835-1.9957 1.8617-3.0448 0.43838-1.2715 1.0431-2.3377 2.769-2.0203 0.6795-1.4826 1.8098-2.2545 2.8427-3.1799l2.5582-3.8725"/>
    </g>
</svg>
