<?xml version="1.0" encoding="UTF-8"?>
<svg enable-background="new 0 0 48 48" version="1.1" viewBox="0 0 48 48" xml:space="preserve" xmlns="http://www.w3.org/2000/svg">
<style type="text/css">
	.st0{fill:none;stroke:#FFFFFF;stroke-linecap:round;stroke-linejoin:round;stroke-miterlimit:7;}
	.st1{fill:none;stroke:#FFFFFF;stroke-linecap:round;stroke-linejoin:round;stroke-miterlimit:10;}
</style>

<path class="st0" d="m7.9197 39.49a21.503 21.512 0 0 1 1.1834-29.794 21.503 21.512 0 0 1 29.805 0.010844 21.503 21.512 0 0 1 1.1617 29.795"/>
<path class="st1" d="m25.702 27.226 12.566-7.857-14.741 3.6263c-0.84578 0.36263-1.4499 1.0879-1.5707 1.934-0.12082 0.84613 0.36248 1.8131 1.0874 2.2967 0.9666 0.60438 1.9332 0.4835 2.6581 0z"/>
<g transform="matrix(1.2083 0 0 1.2088 -4.8607 -6.6889)" stroke-width=".82747">
	<g stroke-width=".82747">
		<path class="st1" d="m14.3 41.4"/>
		<line class="st1" x1="14.3" x2="18.3" y1="33.4" y2="33.4"/>
		<line class="st1" x1="14.3" x2="16.9" y1="37.4" y2="37.4"/>
		<line class="st1" x1="14.3" x2="14.3" y1="33.4" y2="41.4"/>
	
	
		<path class="st1" d="m20.7 41.4v-8h2.6c1.5 0 2.7 1.2 2.7 2.7s-1.2 2.7-2.7 2.7h-2.6"/>
	
	
		<path class="st1" d="m28.5 40.5c0.5 0.6 1.1 0.9 2 0.9h1.2c1.1 0 2-0.9 2-2s-0.9-2-2-2h-1.3c-1.1 0-2-0.9-2-2s0.9-2 2-2h1.2c0.9 0 1.5 0.2 2 0.9"/>
	</g>
</g>
</svg>
