<?xml version="1.0" encoding="UTF-8"?>
<svg viewBox="0 0 48 48" xmlns="http://www.w3.org/2000/svg">
    <defs>
        <style>.a{fill:none;stroke:#fff;stroke-linecap:round;stroke-linejoin:round;}.b{fill:#fff;}</style>
    </defs>
    <path class="a" d="M11.57,8.65,26.68,4.6a6.45,6.45,0,0,1,4.46.77L42.62,17.06a4.52,4.52,0,0,1,.83,4.17L39.33,36.69a3.75,3.75,0,0,1-2.79,2.57l-15,4a4.92,4.92,0,0,1-4.14-.52L5.08,30.16c-.84-.64-.83-1.75-.5-3l4.18-16.3A3.84,3.84,0,0,1,11.57,8.65Z"/>
    <path class="a" d="m8.69 16.8 9.7-2.58 7.21 7.18-2.54 9.92-9.78 2.53-7.12-7.17z"/>
    <line class="a" x1="8.26" x2="8.26" y1="21.19" y2="26.76"/>
    <line class="a" x1="11.94" x2="11.94" y1="21.19" y2="26.76"/>
    <line class="a" x1="8.26" x2="11.94" y1="23.98" y2="23.98"/>
    <line class="a" x1="14.61" x2="17.39" y1="26.76" y2="26.76"/>
    <line class="a" x1="14.61" x2="17.39" y1="21.19" y2="21.19"/>
    <line class="a" x1="14.61" x2="16.42" y1="23.98" y2="23.98"/>
    <line class="a" x1="14.61" x2="14.61" y1="21.19" y2="26.76"/>
    <line class="a" x1="20.06" x2="23.75" y1="21.19" y2="26.76"/>
    <line class="a" x1="23.75" x2="20.06" y1="21.19" y2="26.76"/>
    <circle class="b" cx="26.63" cy="21.4" r=".56"/>
    <line class="a" x1="26.63" x2="26.63" y1="23.07" y2="26.76"/>
    <path class="a" d="m31.53 25.37a1.39 1.39 0 0 1-1.39 1.39 1.39 1.39 0 0 1-1.39-1.39v-0.91a1.39 1.39 0 0 1 1.39-1.39 1.4 1.4 0 0 1 1.39 1.39"/>
    <line class="a" x1="31.53" x2="31.53" y1="26.76" y2="23.07"/>
    <path class="a" d="m36.22 26.76v-2.3a1.39 1.39 0 0 0-1.39-1.39 1.39 1.39 0 0 0-1.39 1.39v2.3"/>
    <line class="a" x1="33.44" x2="33.44" y1="24.46" y2="23.07"/>
    <path class="a" d="m39.52 26.76a1.39 1.39 0 0 1-1.39-1.39v-0.91a1.4 1.4 0 0 1 1.39-1.39 1.39 1.39 0 0 1 1.39 1.39v0.91a1.39 1.39 0 0 1-1.39 1.39z"/>
</svg>
