<?xml version="1.0" encoding="UTF-8"?>
<svg version="1.1" viewBox="0 0 48 48" xmlns="http://www.w3.org/2000/svg">
    <defs>
        <style>.a{fill:none;stroke:#fff;stroke-linecap:round;stroke-linejoin:round;}</style>
    </defs>
    <g fill="none" stroke="#fff" stroke-linecap="round" stroke-linejoin="round">
        <path d="m19.486 8.7631v-2.7042"/>
        <path d="m35.843 38.71c1.861 0.88345 3.5813 1.8958 5.2288 2.9749"/>
        <path d="m7.1961 24.269v-6.7721h5.8981v6.0113"/>
        <path d="m13.094 22.534h-5.8993"/>
        <path d="m10.104 17.506v-10.045"/>
        <path d="m6.1951 12.473h7.8173"/>
        <path d="m15.294 8.7631h8.8064"/>
        <path d="m14.792 14.615h9.7785"/>
        <path d="m24.126 19.01h-8.8972"/>
        <path d="m19.543 14.678v9.7972"/>
        <path d="m23.816 36.869h18.002"/>
        <path d="m39.809 36.869v-10.388h-13.752v10.359"/>
        <path d="m26.061 31.535h13.748"/>
        <path d="m35.183 36.869-1e-6 -13.3"/>
        <path d="m30.565 36.869v-13.188"/>
        <path d="m6.5486 8.0872c1.7477-0.2227 3.9189-0.69074 6.5247-1.4104"/>
        <path d="m16.609 10.449c0.39688 0.98579 0.72969 1.947 0.90054 2.8462"/>
        <path d="m22.601 10.341c-0.31797 0.88805-0.71116 1.8553-1.2137 2.9376"/>
        <path d="m29.907 38.854c-1.6002 1.2879-3.4638 2.1968-5.4087 2.9884"/>
    </g>
</svg>
