<?xml version="1.0" encoding="UTF-8"?>
<svg version="1.1" viewBox="0 0 48 48" xmlns="http://www.w3.org/2000/svg">
    <path d="m8.9676 14.172v5.053c6.6605-4.5631 9.7788-1.1826 7.2541 2.2577l-7.2541 6.3453v4.115l13.869-0.03076v-4.2272h-7.1018c16.201-13.473-0.46949-16.496-6.7671-13.513z" fill="none" stroke="#fff" stroke-linecap="round" stroke-linejoin="round" stroke-width="1px"/>
    <style/>
    <defs>
        <style>.a{fill:none;stroke:#fff;stroke-linecap:round;stroke-linejoin:round;}</style>
    </defs>
    <circle cx="24" cy="24" r="21.498" fill="none" stroke="#fff" stroke-linecap="round" stroke-linejoin="round" stroke-miterlimit="7" stroke-width="1.0031"/>
    <path d="m29.321 24.166h3.5907v-5.2007z" fill="none" stroke="#fff" stroke-linecap="round" stroke-linejoin="round" stroke-width="1px"/>
    <path d="m24.879 25.422-0.005694 3.2917h8.0712l0.06764 3.2683 5.1212-0.005132v0-3.2631h2.6241v-4.2321h-2.5759v-11.305h-5.9229l-6.9095 10.274" fill="none" stroke="#fff" stroke-linecap="round" stroke-linejoin="round" stroke-width="1px"/>
    <path d="m38.182 14.554a17.038 17.038 0 0 1 2.8612 9.4506v0a17.038 17.038 0 0 1-0.28558 3.1064" fill="none" stroke="#fff" stroke-linecap="round" stroke-linejoin="round"/>
    <path d="m10.64 13.5c3.2198-4.2657 8.0209-6.533 13.365-6.533 5.0917 1e-7 9.9166 2.2773 13.153 6.208" fill="none" stroke="#fff" stroke-linecap="round" stroke-linejoin="round"/>
    <path d="m40.38 28.713a17.038 17.038 0 0 1-16.375 12.33 17.038 17.038 0 0 1-17.038-17.038 17.038 17.038 0 0 1 2.0003-8.0101" fill="none" stroke="#fff" stroke-linecap="round" stroke-linejoin="round"/>
    <path d="m23.424 24.566h-0.26578v-9.7502 0h1.6885v8.4455" fill="none" stroke="#fff" stroke-linecap="round" stroke-linejoin="round"/>
    <path d="m24.04 22.96 12.93 4.8561-0.71727 1.8877-12.932-4.8669z" fill="none" stroke="#fff" stroke-linecap="round" stroke-linejoin="round" stroke-width="1px"/>
</svg>
