<?xml version="1.0" encoding="UTF-8" standalone="no"?>
<svg
   xmlns:dc="http://purl.org/dc/elements/1.1/"
   xmlns:cc="http://creativecommons.org/ns#"
   xmlns:rdf="http://www.w3.org/1999/02/22-rdf-syntax-ns#"
   xmlns:svg="http://www.w3.org/2000/svg"
   xmlns="http://www.w3.org/2000/svg"
   xmlns:sodipodi="http://sodipodi.sourceforge.net/DTD/sodipodi-0.dtd"
   xmlns:inkscape="http://www.inkscape.org/namespaces/inkscape"
   viewBox="0 0 48 48"
   version="1.1"
   id="svg8"
   sodipodi:docname="just24hours.svg"
   inkscape:version="1.0.2 (e86c870879, 2021-01-15)">
  <path
     style="fill:none;stroke:#ffffff;stroke-width:1px;stroke-linecap:round;stroke-linejoin:round;stroke-opacity:1"
     d="m 8.9676234,14.171593 v 5.052994 C 15.628169,14.661532 18.746384,18.042004 16.221707,21.4823 l -7.2540836,6.345307 v 4.115018 l 13.8688436,-0.03076 v -4.2272 h -7.10178 C 31.935197,14.212123 15.265194,11.188936 8.9676234,14.171593 Z"
     id="path8124-3"
     sodipodi:nodetypes="ccccccccc" />
  <style
     id="style1381" />
  <metadata
     id="metadata12">
    <rdf:RDF>
      <cc:Work
         rdf:about="">
        <dc:format>image/svg+xml</dc:format>
        <dc:type
           rdf:resource="http://purl.org/dc/dcmitype/StillImage" />
        <dc:title></dc:title>
      </cc:Work>
    </rdf:RDF>
  </metadata>
  <sodipodi:namedview
     pagecolor="#595959"
     bordercolor="#666666"
     borderopacity="1"
     objecttolerance="10"
     gridtolerance="10"
     guidetolerance="10"
     inkscape:pageopacity="0"
     inkscape:pageshadow="2"
     inkscape:window-width="3840"
     inkscape:window-height="2096"
     id="namedview10"
     showgrid="false"
     showguides="true"
     inkscape:guide-bbox="true"
     inkscape:zoom="9.765625"
     inkscape:cx="24"
     inkscape:cy="24"
     inkscape:window-x="0"
     inkscape:window-y="27"
     inkscape:window-maximized="1"
     inkscape:current-layer="svg8"
     inkscape:document-rotation="0" />
  <defs
     id="defs4">
    <style
       id="style2">.a{fill:none;stroke:#fff;stroke-linecap:round;stroke-linejoin:round;}</style>
  </defs>
  <circle
     style="fill:none;fill-opacity:1;stroke:#ffffff;stroke-width:1.00309;stroke-linecap:round;stroke-linejoin:round;stroke-miterlimit:7;stroke-dasharray:none;stroke-dashoffset:0;stroke-opacity:1"
     id="path8120"
     cx="24"
     cy="24"
     r="21.498455" />
  <path
     style="fill:none;stroke:#ffffff;stroke-width:1px;stroke-linecap:round;stroke-linejoin:round;stroke-opacity:1"
     d="m 29.321274,24.166495 h 3.59066 V 18.96578 Z"
     id="path8132"
     sodipodi:nodetypes="cccc" />
  <path
     id="path8128"
     style="fill:none;stroke:#ffffff;stroke-width:1px;stroke-linecap:round;stroke-linejoin:round;stroke-opacity:1"
     d="M 24.878743 25.421871 L 24.873049 28.713586 L 32.944206 28.713586 L 33.011846 31.981899 L 38.133037 31.976767 L 38.133037 31.976767 L 38.133037 28.713651 L 40.757172 28.713651 L 40.757172 24.481554 L 38.181315 24.481554 L 38.181315 13.176166 L 32.258418 13.176166 L 25.348902 23.45038 " />
  <path
     id="path1957"
     style="fill:none;stroke:#ffffff;stroke-linecap:round;stroke-linejoin:round;stroke-opacity:1"
     d="M 38.181719 14.554472 A 17.037947 17.037947 0 0 1 41.042969 24.005022 L 41.042969 24.005022 A 17.037947 17.037947 0 0 1 40.757392 27.111424 " />
  <path
     id="path2016"
     style="fill:none;stroke:#ffffff;stroke-linecap:round;stroke-linejoin:round;stroke-opacity:1"
     d="m 10.63971,13.500068 c 3.219759,-4.2656759 8.020891,-6.5329925 13.365312,-6.5329927 5.091748,10e-8 9.916638,2.2772621 13.153128,6.2080417"
     sodipodi:nodetypes="csc" />
  <path
     id="path2039"
     style="fill:none;stroke:#ffffff;stroke-linecap:round;stroke-linejoin:round;stroke-opacity:1"
     d="M 40.379541 28.71318 A 17.037947 17.037947 0 0 1 24.005022 41.042969 A 17.037947 17.037947 0 0 1 6.9670753 24.005022 A 17.037947 17.037947 0 0 1 8.9673999 15.994932 " />
  <path
     id="rect2044"
     style="fill:none;stroke:#ffffff;stroke-linecap:round;stroke-linejoin:round;stroke-opacity:1"
     d="M 23.423537 24.566012 L 23.157757 24.566012 L 23.157757 14.815808 L 23.157757 14.815808 L 24.846243 14.815808 L 24.846243 23.261298 " />
  <path
     style="fill:none;stroke:#ffffff;stroke-width:1px;stroke-linecap:round;stroke-linejoin:round;stroke-opacity:1"
     d="m 24.040383,22.959534 12.929534,4.856081 -0.717266,1.887673 -12.931602,-4.866929 z"
     id="path2056" />
</svg>
