<?xml version="1.0" encoding="UTF-8"?>
<svg version="1.1" viewBox="0 0 48 48" xmlns="http://www.w3.org/2000/svg">
    <style/>
    <defs>
        <style>.a{fill:none;stroke:#fff;stroke-linecap:round;stroke-linejoin:round;}</style>
    </defs>
    <path d="m25.893 24a1.8925 1.8925 0 0 1-0.94626 1.639 1.8925 1.8925 0 0 1-1.8925 0 1.8925 1.8925 0 0 1-0.94626-1.639" fill="none" stroke="#fefefe" stroke-linecap="round" stroke-linejoin="round" stroke-miterlimit="10"/>
    <circle cx="24" cy="24" r="21.5" fill="none" stroke="#fff" stroke-linecap="round" stroke-linejoin="round" stroke-miterlimit="10"/>
    <circle cx="24" cy="24" r="18.377" fill="none" stroke="#fff" stroke-linecap="round" stroke-linejoin="round" stroke-miterlimit="10"/>
    <path d="m25.89 23.976-1.89-11.805-1.8878 11.722" fill="none" stroke="#fefefe" stroke-linecap="round" stroke-linejoin="round" stroke-miterlimit="7"/>
    <rect x="18.223" y="33.891" width=".61565" height=".62838" ry="0" fill="none" stroke="#fff" stroke-linecap="round" stroke-linejoin="round"/>
    <rect x="21.873" y="33.891" width=".61565" height=".62838" ry="0" fill="none" stroke="#fff" stroke-linecap="round" stroke-linejoin="round"/>
    <rect x="25.522" y="33.891" width=".61565" height=".62838" ry="0" fill="none" stroke="#fff" stroke-linecap="round" stroke-linejoin="round"/>
    <rect x="29.172" y="33.891" width=".61565" height=".62838" ry="0" fill="none" stroke="#fff" stroke-linecap="round" stroke-linejoin="round"/>
    <path d="m10.718 30.142c-0.28358-0.60482-0.52912-1.1366-0.74601-1.9229" fill="none" stroke="#fefefe" stroke-linecap="round" stroke-linejoin="round" stroke-width="1px"/>
    <path d="m9.3694 24.278c0.015343 0.69554 0.047385 1.382 0.18001 2.0133" fill="none" stroke="#fefefe" stroke-linecap="round" stroke-linejoin="round" stroke-width="1px"/>
    <path d="m9.4815 22.353c0.033313-0.68054 0.19499-1.3664 0.36102-2.0524" fill="none" stroke="#fefefe" stroke-linecap="round" stroke-linejoin="round" stroke-width="1px"/>
    <path d="m10.46 18.424c0.25586-0.5891 0.53154-1.1835 0.87408-1.7959" fill="none" stroke="#fefefe" stroke-linecap="round" stroke-linejoin="round" stroke-width="1px"/>
    <path d="m12.442 14.991c0.40983-0.52402 0.86244-1.0092 1.3717-1.5056" fill="none" stroke="#fefefe" stroke-linecap="round" stroke-linejoin="round" stroke-width="1px"/>
    <path d="m15.309 12.205c0.49199-0.35493 1.0339-0.72573 1.7293-1.0873" fill="none" stroke="#fefefe" stroke-linecap="round" stroke-linejoin="round" stroke-width="1px"/>
    <path d="m18.831 10.305c0.62871-0.21466 1.2653-0.42029 1.933-0.57175" fill="none" stroke="#fefefe" stroke-linecap="round" stroke-linejoin="round" stroke-width="1px"/>
    <path d="m22.705 9.4205c0.69105-0.062183 1.3878-0.091798 2.0985-0.0404" fill="none" stroke="#fefefe" stroke-linecap="round" stroke-linejoin="round" stroke-width="1px"/>
    <path d="m26.702 9.593c0.63726 0.12413 1.284 0.29696 1.9377 0.50524" fill="none" stroke="#fefefe" stroke-linecap="round" stroke-linejoin="round" stroke-width="1px"/>
    <path d="m30.469 10.859c0.57365 0.29067 1.1504 0.59395 1.7549 1.0083" fill="none" stroke="#fefefe" stroke-linecap="round" stroke-linejoin="round" stroke-width="1px"/>
    <path d="m33.769 13.084c0.47554 0.42941 0.96275 0.93728 1.4607 1.5173" fill="none" stroke="#fefefe" stroke-linecap="round" stroke-linejoin="round" stroke-width="1px"/>
    <path d="m36.339 16.154c0.42379 0.66506 0.67627 1.1333 1.014 1.8381" fill="none" stroke="#fefefe" stroke-linecap="round" stroke-linejoin="round" stroke-width="1px"/>
    <path d="m38.031 19.764c0.18643 0.65408 0.34951 1.338 0.45175 1.9891" fill="none" stroke="#fefefe" stroke-linecap="round" stroke-linejoin="round" stroke-width="1px"/>
    <path d="m38.652 23.675c0.0066 0.63694-0.0252 1.3237-0.09722 2.0624" fill="none" stroke="#fefefe" stroke-linecap="round" stroke-linejoin="round" stroke-width="1px"/>
    <path d="m38.182 27.674c-0.18782 0.65813-0.39661 1.279-0.64151 1.9082" fill="none" stroke="#fefefe" stroke-linecap="round" stroke-linejoin="round" stroke-width="1px"/>
</svg>
