<?xml version="1.0" encoding="UTF-8" standalone="no"?>
<svg
   xmlns:dc="http://purl.org/dc/elements/1.1/"
   xmlns:cc="http://creativecommons.org/ns#"
   xmlns:rdf="http://www.w3.org/1999/02/22-rdf-syntax-ns#"
   xmlns:svg="http://www.w3.org/2000/svg"
   xmlns="http://www.w3.org/2000/svg"
   xmlns:sodipodi="http://sodipodi.sourceforge.net/DTD/sodipodi-0.dtd"
   xmlns:inkscape="http://www.inkscape.org/namespaces/inkscape"
   viewBox="0 0 48 48"
   version="1.1"
   id="svg883"
   sodipodi:docname="mapassist.svg"
   inkscape:version="1.0.2 (e86c870879, 2021-01-15)">
  <metadata
     id="metadata887">
    <rdf:RDF>
      <cc:Work
         rdf:about="">
        <dc:format>image/svg+xml</dc:format>
        <dc:type
           rdf:resource="http://purl.org/dc/dcmitype/StillImage" />
        <dc:title></dc:title>
      </cc:Work>
    </rdf:RDF>
  </metadata>
  <sodipodi:namedview
     pagecolor="#7d7d7d"
     bordercolor="#666666"
     borderopacity="1"
     objecttolerance="10"
     gridtolerance="10"
     guidetolerance="10"
     inkscape:pageopacity="0"
     inkscape:pageshadow="2"
     inkscape:window-width="3840"
     inkscape:window-height="2096"
     id="namedview885"
     showgrid="false"
     inkscape:zoom="13.810679"
     inkscape:cx="24"
     inkscape:cy="24"
     inkscape:window-x="0"
     inkscape:window-y="27"
     inkscape:window-maximized="1"
     inkscape:current-layer="svg883"
     showguides="true"
     inkscape:guide-bbox="true"
     inkscape:document-rotation="0" />
  <defs
     id="defs879">
    <style
       id="style877">.a{fill:none;stroke:#fff;stroke-linecap:round;stroke-linejoin:round;}</style>
  </defs>
  <path
     style="fill:none;stroke:#ffffff;stroke-width:1.00158;stroke-linecap:round;stroke-linejoin:round;stroke-miterlimit:2.66667;stroke-dasharray:none;stroke-opacity:1"
     id="path1051"
     sodipodi:type="arc"
     sodipodi:cx="22.460875"
     sodipodi:cy="12.626742"
     sodipodi:rx="8.1327333"
     sodipodi:ry="8.1259489"
     sodipodi:start="2.2791388"
     sodipodi:end="0.88646896"
     sodipodi:open="true"
     sodipodi:arc-type="arc"
     d="m 17.169914,18.797923 a 8.1327333,8.1259489 0 0 1 -2.319937,-9.035074 8.1327333,8.1259489 0 0 1 7.708549,-5.2614697 8.1327333,8.1259489 0 0 1 7.579879,5.444902 8.1327333,8.1259489 0 0 1 -2.536407,8.9768077" />
  <path
     style="fill:none;stroke:#ffffff;stroke-width:1.00158;stroke-linecap:round;stroke-linejoin:round;stroke-miterlimit:2.66667;stroke-dasharray:none;stroke-opacity:1"
     d="m 13.632803,32.342118 6.457812,1.388548 V 12.951862 c 0,-3.5340309 4.729566,-3.5340309 4.729566,0 v 11.600585 h 2.375977 l 9.501126,4.779233 c 0.400417,0.250923 1.068191,1.256405 0.899455,2.244908 l -1.45248,10.269818 c -0.138154,0.491052 -0.9642,1.607695 -1.933099,1.652804 H 20.950183 c -0.966499,-0.07075 -1.385496,-0.443232 -1.846546,-0.957841 l -8.727867,-8.74751 1.092833,-1.111674 c 0.566825,-0.575917 1.197039,-0.476611 2.1642,-0.340067 z"
     id="path1053"
     sodipodi:nodetypes="ccccccccccccccc" />
  <path
     id="path1061"
     style="fill:none;stroke:#ffffff;stroke-width:1.00158;stroke-linecap:round;stroke-linejoin:round;stroke-miterlimit:2.66667;stroke-dasharray:none;stroke-opacity:1"
     d="m 27.601999,18.923086 v -6.099709 c 0,-7.0848845 -10.432083,-7.0848845 -10.432083,0 v 5.974545"
     sodipodi:nodetypes="cccc" />
</svg>
