<?xml version="1.0" encoding="UTF-8"?>
<svg version="1.1" viewBox="0 0 48 48" xmlns="http://www.w3.org/2000/svg">
    <defs>
        <style>.a{fill:none;stroke:#fff;stroke-linecap:round;stroke-linejoin:round;}</style>
    </defs>
    <path d="m17.17 18.798a8.1327 8.1259 0 0 1-2.3199-9.0351 8.1327 8.1259 0 0 1 7.7085-5.2615 8.1327 8.1259 0 0 1 7.5799 5.4449 8.1327 8.1259 0 0 1-2.5364 8.9768" fill="none" stroke="#fff" stroke-linecap="round" stroke-linejoin="round" stroke-miterlimit="2.6667" stroke-width="1.0016"/>
    <path d="m13.633 32.342 6.4578 1.3885v-20.779c0-3.534 4.7296-3.534 4.7296 0v11.601h2.376l9.5011 4.7792c0.40042 0.25092 1.0682 1.2564 0.89946 2.2449l-1.4525 10.27c-0.13815 0.49105-0.9642 1.6077-1.9331 1.6528h-13.261c-0.9665-0.07075-1.3855-0.44323-1.8465-0.95784l-8.7279-8.7475 1.0928-1.1117c0.56682-0.57592 1.197-0.47661 2.1642-0.34007z" fill="none" stroke="#fff" stroke-linecap="round" stroke-linejoin="round" stroke-miterlimit="2.6667" stroke-width="1.0016"/>
    <path d="m27.602 18.923v-6.0997c0-7.0849-10.432-7.0849-10.432 0v5.9745" fill="none" stroke="#fff" stroke-linecap="round" stroke-linejoin="round" stroke-miterlimit="2.6667" stroke-width="1.0016"/>
</svg>
