<svg version="1.1" viewBox="0 0 48 48" xmlns="http://www.w3.org/2000/svg">
 <style/>
 <defs>
  <style>.a{fill:none;stroke:#fff;stroke-linecap:round;stroke-linejoin:round;}</style>
 </defs>
 <g fill="none" stroke="#fff" stroke-linecap="round" stroke-linejoin="round">
  <path d="m4.5 34.162 0.046907-12.451h2.8286l2.4481 8.113 2.3773-8.138h2.8401v12.476h-1.7778v-10.477l-3.0059 9.7961h-0.90064l-3.0807-9.9133v10.584z" stroke-miterlimit="2.5"/>
  <g stroke-width="1px">
   <path d="m24.379 24.231c-2.4878-1.8964-5.5113-0.20349-5.4798 3.9336 0.03083 4.0509 2.9893 5.9496 5.6429 3.3478l1.0018 1.4957c-3.1028 3.1988-8.5765 1.1448-8.4389-4.9427 0.13824-6.1166 5.1328-7.9656 8.3075-5.3266z"/>
   <path d="m27.402 21.652v1.9886h3.1771v10.488h1.9656v-12.477z"/>
   <path d="m36.203 23.641h-1.9448v-1.1593l0.69647-0.82932h1.2335z"/>
  </g>
  <g stroke-miterlimit="2.5">
   <path d="m35.581 18.985a3.1376 3.5996 0 0 1 3.1376 3.5996"/>
   <path d="m35.581 16.219a5.549 6.3661 0 0 1 5.549 6.3661"/>
   <path d="m35.581 13.5a7.9189 9.085 0 0 1 7.9189 9.085"/>
  </g>
 </g>
</svg>
