<?xml version="1.0" encoding="UTF-8"?>
<svg version="1.1" viewBox="0 0 48 48" xmlns="http://www.w3.org/2000/svg">
    <style/>
    <defs>
        <style>.a{fill:none;stroke:#fff;stroke-linecap:round;stroke-linejoin:round;}</style>
    </defs>
    <g fill="none" stroke="#fff" stroke-linecap="round" stroke-linejoin="round">
        <path d="m28.812 41.631h-20.768c-1.4094 0-2.5441-1.1344-2.5441-2.5436v-31.009c0-1.4091 1.1347-2.5436 2.5441-2.5436h30.823c1.4094 0 2.5441 1.1344 2.5441 2.5436v20.649" stroke-miterlimit="2.5"/>
        <path d="m14.439 5.7363v16.5l1.8365-1.7404 2.4014 2.3188 2.4555-2.4032 2.4669 2.5691 2.3926-2.4305 2.4568 2.3392 2.3854-2.4501 1.956 1.9556v-16.895" stroke-width="1px"/>
        <path d="m14.259 41.623-0.03246-1.5329 2.2634 1.4077 2.1595-1.5378 2.4855 1.5298 2.4391-1.5863 2.2827 1.6139 1.7958-1.5228" stroke-width="1px"/>
        <ellipse cx="36.331" cy="36.433" rx="9.1892" ry="9.1873" stroke-miterlimit="2.5" stroke-width=".95908"/>
        <path d="m33.386 32.942c0.54642-2.4404 5.511-2.2231 6.1229 0.01117z" stroke-width="1px"/>
        <rect x="33.252" y="34.677" width="6.3261" height="5.3032" ry="0" stroke-miterlimit="2.5" stroke-width=".97724"/>
        <g stroke-width="1px">
            <path d="m37.902 40.032v3.0477"/>
            <path d="m34.834 40.032v3.0477"/>
            <path d="m31.393 34.138v4.8873"/>
            <path d="m41.437 34.138v4.8873"/>
            <path d="m35.186 31.525-1.1965-1.6863"/>
            <path d="m37.626 31.547 1.1965-1.6863"/>
            <path d="m16.997 18.145v-7.0282h0.83368l2.4289 6.9876h0.5105l2.3836-7.0174h0.86498v7.058"/>
            <path d="m27.081 11.087v7.0386h4.3442"/>
        </g>
    </g>
</svg>
