<?xml version="1.0" encoding="UTF-8"?>
<svg version="1.1" viewBox="0 0 48 48" xmlns="http://www.w3.org/2000/svg">
    <style/>
    <defs>
        <style>.a{fill:none;stroke:#fff;stroke-linecap:round;stroke-linejoin:round;}</style>
    </defs>
    <path d="m25.755 20.762a3.6536 3.6583 0 0 1 1.7727 4.1638 3.6536 3.6583 0 0 1-3.6265 2.7023 3.6536 3.6583 0 0 1-3.4741-2.896 3.6536 3.6583 0 0 1 1.9965-4.061" fill="none" stroke="#fff" stroke-linecap="round" stroke-linejoin="round" stroke-opacity=".9952"/>
    <path d="m30.768 17.195a9.5703 9.5828 0 0 1 1.403 11.766 9.5703 9.5828 0 0 1-11.091 4.1354 9.5703 9.5828 0 0 1-6.625-9.8193 9.5703 9.5828 0 0 1 7.9712-8.7588" fill="none" stroke="#fff" stroke-linecap="round" stroke-linejoin="round" stroke-opacity=".9952"/>
    <path d="m32.987 14.973a12.709 12.725 0 0 1 1.7953 15.735 12.709 12.725 0 0 1-14.904 5.3002 12.709 12.725 0 0 1-8.5186-13.344 12.709 12.725 0 0 1 11.062-11.32" fill="none" stroke="#fff" stroke-linecap="round" stroke-linejoin="round" stroke-opacity=".9952"/>
    <path d="m37.056 10.899a18.462 18.486 0 0 1 2.512 23.011 18.462 18.486 0 0 1-21.896 7.4269 18.462 18.486 0 0 1-11.972-19.802 18.462 18.486 0 0 1 16.723-15.983" fill="none" stroke="#fff" stroke-linecap="round" stroke-linejoin="round" stroke-opacity=".9952"/>
    <path d="m39.204 8.7483a21.5 21.528 0 0 1 2.8904 26.852 21.5 21.528 0 0 1-25.585 8.5494 21.5 21.528 0 0 1-13.794-23.208 21.5 21.528 0 0 1 19.706-18.44" fill="none" stroke="#fff" stroke-linecap="round" stroke-linejoin="round" stroke-opacity=".9952"/>
    <path d="m30.768 17.195 2.219-2.2219" fill="none" stroke="#fff" stroke-linecap="round" stroke-linejoin="round" stroke-width="1px"/>
    <path d="m37.056 10.899 2.1479-2.1507" fill="none" stroke="#fff" stroke-linecap="round" stroke-linejoin="round" stroke-width="1px"/>
    <path d="m22.424 20.671 3e-3 -6.1524" fill="none" stroke="#fff" stroke-linecap="round" stroke-linejoin="round" stroke-width="1px"/>
    <path d="m22.421 11.344 0.0014-5.7922" fill="none" stroke="#fff" stroke-linecap="round" stroke-linejoin="round" stroke-width="1px"/>
    <path d="m25.755 20.762v-18.262l-3.334 0.00109" fill="none" stroke="#fff" stroke-linecap="round" stroke-linejoin="round" stroke-width="1px"/>
</svg>
