<?xml version="1.0" encoding="UTF-8"?>
<svg version="1.1" viewBox="0 0 48 48" xmlns="http://www.w3.org/2000/svg">
    <style/>
    <defs>
        <style>.a{fill:none;stroke:#fff;stroke-linecap:round;stroke-linejoin:round;}</style>
    </defs>
    <path d="m38.302 29.289-28.632-1e-6c-0.63259 0-1.1419-0.50927-1.1419-1.1419v-0.29148c0-0.63259 0.50927-1.1419 1.1419-1.1419v0" fill="none" stroke="#fff" stroke-linecap="round" stroke-linejoin="round" stroke-opacity=".99819" stroke-width=".90466"/>
    <path d="m39.083 29.249c-0.096437 0.026294-0.19804 0.040324-0.30303 0.040324l-0.4785 1e-6" fill="none" stroke="#fff" stroke-linecap="round" stroke-linejoin="round" stroke-opacity=".99819" stroke-width=".90466"/>
    <path d="m38.78 26.714c0.63259 0 1.1419 0.50927 1.1419 1.1419v0.29148c0 0.5276-0.35424 0.96941-0.83883 1.1015" fill="none" stroke="#fff" stroke-linecap="round" stroke-linejoin="round" stroke-opacity=".99819" stroke-width=".90466"/>
    <path d="m29.594 26.714 1.8088 1e-6" fill="none" stroke="#fff" stroke-linecap="round" stroke-linejoin="round" stroke-opacity=".99819" stroke-width=".90466"/>
    <path d="m17.945 26.714h3.0902" fill="none" stroke="#fff" stroke-linecap="round" stroke-linejoin="round" stroke-opacity=".99819" stroke-width=".90466"/>
    <path d="m17.248 5.8291h-11.631v12.453" fill="none" stroke="#fff" stroke-linecap="round" stroke-linejoin="round" stroke-opacity=".99819" stroke-width="1px"/>
    <path d="m5.5 29.798v12.57h11.367" fill="none" stroke="#fff" stroke-linecap="round" stroke-linejoin="round" stroke-opacity=".99819" stroke-width="1px"/>
    <path d="m31.05 42.5h11.45v-12.479" fill="none" stroke="#fff" stroke-linecap="round" stroke-linejoin="round" stroke-opacity=".99819" stroke-width="1px"/>
    <path d="m42.47 18.171v-12.671h-11.554" fill="none" stroke="#fff" stroke-linecap="round" stroke-linejoin="round" stroke-opacity=".99819" stroke-width="1px"/>
    <rect x="8.5279" y="9.8785" width="31.394" height="2.5752" ry="1.1419" fill="none" stroke="#fff" stroke-linecap="round" stroke-linejoin="round" stroke-opacity=".99819" stroke-width=".90466"/>
    <path d="m21.202 20.871h-3.4144" fill="none" stroke="#fff" stroke-linecap="round" stroke-linejoin="round" stroke-opacity=".99819" stroke-width=".90466"/>
    <path d="m31.402 20.871h-1.8335" fill="none" stroke="#fff" stroke-linecap="round" stroke-linejoin="round" stroke-opacity=".99819" stroke-width=".90466"/>
    <path d="m9.6698 20.871c-0.63259 0-1.1419-0.50927-1.1419-1.1419v-0.29148c0-0.63259 0.50927-1.1419 1.1419-1.1419v0h29.111c0.63259 0 1.1419 0.50927 1.1419 1.1419v0.29148c0 0.63259-0.50927 1.1419-1.1419 1.1419" fill="none" stroke="#fff" stroke-linecap="round" stroke-linejoin="round" stroke-opacity=".99819" stroke-width=".90466"/>
    <rect x="8.469" y="35.073" width="23.562" height="2.6926" ry="1.1939" fill="none" stroke="#fff" stroke-linecap="round" stroke-linejoin="round" stroke-opacity=".99819" stroke-width=".8014"/>
    <ellipse cx="13.613" cy="23.723" rx="3.6428" ry="3.8642" fill="none" stroke="#fff" stroke-linecap="round" stroke-linejoin="round" stroke-opacity=".99819" stroke-width=".81518"/>
    <path d="m27.954 20.857s-0.86561-0.94293-2.3484-0.94293c-1.8536 0-3.481 1.0193-3.5687 3.7358-0.08762 2.7165 1.5787 3.9335 3.5555 3.9335 1.2775 0 2.4568-1.0886 2.4568-1.0886" fill="none" stroke="#fff" stroke-linecap="round" stroke-linejoin="round" stroke-opacity=".99819" stroke-width=".85256px"/>
    <g fill="none" stroke="#fff" stroke-linecap="round" stroke-linejoin="round" stroke-width="1px">
        <path d="m37.448 27.559c-0.74102-2.7125-1.176-3.1544-2.3933-4.2438" stroke-opacity=".99819"/>
        <path d="m32.919 27.559 0.10344-7.6665h2.7423c1.5531 0 1.545 3.3919 0 3.3919h-2.7679"/>
    </g>
</svg>
