<?xml version="1.0" encoding="UTF-8"?>
<svg version="1.1" viewBox="0 0 48 48" xmlns="http://www.w3.org/2000/svg">
    <defs>
        <style>.a{fill:none;stroke:#fff;stroke-linecap:round;stroke-linejoin:round;}</style>
    </defs>
    <g fill="none" stroke="#fff" stroke-linecap="round" stroke-linejoin="round" stroke-opacity=".99139">
        <path d="m38.127 8.8436-5.6681 5.6681-5.2212-5.2212v2.4628l3.0614 3.0614-23.112 23.112-0.1447 3.4153 3.3193-0.16253 23.135-23.135 2.9773 2.9773h2.4945l-5.1909-5.1909 5.6684-5.6684" stroke-width="1px"/>
        <path d="m38.168 8.7734a1.788 1.788 0 0 1 0.94427-1.9303 1.788 1.788 0 0 1 2.1166 0.3708 1.788 1.788 0 0 1 0.23187 2.1363 1.788 1.788 0 0 1-1.9878 0.81629"/>
        <g stroke-width="1px">
            <path d="m20.8 24.312-6.4142-6.4142-2.9773 2.9773h-2.4945l5.1909-5.1909-5.6684-5.6684"/>
            <path d="m27.228 24.313 13.467 13.467 0.1447 3.4153-3.3193-0.16253-13.506-13.506"/>
            <path d="m9.7555 8.6966 5.6681 5.6681 5.2212-5.2212v2.4628l-3.0614 3.0614 6.431 6.431"/>
        </g>
        <path d="m8.4896 10.073a1.788 1.788 0 0 1-1.9845-0.83516 1.788 1.788 0 0 1 0.25721-2.1377 1.788 1.788 0 0 1 2.126-0.34059 1.788 1.788 0 0 1 0.91212 1.9503"/>
        <g stroke-width="1px">
            <path d="m31.597 16.745-24.109 24.109"/>
            <path d="m16.362 16.641 6.0365 6.0365"/>
            <path d="m25.623 25.909 14.93 14.93"/>
        </g>
    </g>
</svg>
