<?xml version="1.0" encoding="UTF-8"?>
<svg version="1.1" viewBox="0 0 48 48" xmlns="http://www.w3.org/2000/svg">
    <defs>
        <style>.a{fill:none;stroke:#fff;stroke-linecap:round;stroke-linejoin:round;}</style>
    </defs>
    <g fill="none" stroke="#f7f7f7" stroke-linecap="round" stroke-linejoin="round">
        <g stroke-width="1px">
            <path d="m14.377 11.5c-16.055 5.8943-15.615 19.32 0 25h19.289c15.604-6.0503 15.952-19.434 0-25z"/>
            <path d="m35.91 35.526c-0.51136-0.68185-2.1865-1.1932-3.1223-1.051-0.96815-0.1774-2.1856-0.38443-3.6611 0.56083-0.87898-1.3048-1.7764-0.7432-2.5908-0.45936-1.102 0.12253-2.097 0.44054-3.8557 0.29227-0.11998 0.28665-0.49448 0.42724-1.0046 0.48998-0.1904 0.2957-0.09933 0.49679-0.1423 0.73312"/>
            <path d="m19.144 35.863c0.313 0.15597 0.599 0.09776 1.0973 0.15364"/>
            <path d="m17.686 36.053-0.2254-0.38041c0.20065-0.57006 0.73844-0.49772 0.77-0.73861l-0.7282-0.51556c-0.03408-0.18957-0.10304-0.3868 0.0092-0.54422 0.24448-0.0019 0.48896-0.22487 0.73345-0.34166"/>
            <path d="m17.168 35.505c-0.6228-0.25823-3.7135 0.07555-3.9561 0.498"/>
        </g>
        <path d="m16.569 28.338 0.25042-0.97918c0.45192-0.14586 0.4932-0.3953 0.79976-0.638 0.0015-0.25235-0.04916-1.0724 0.48191-1.4327l-0.34759-0.32954s-1.6823-0.43356-1.674-0.35782c0.17048 0.29058-0.11008-0.96489-0.11008-0.96489l-1.6461-0.96921-0.48883 0.61649c-0.25932 0.7334-0.67796 1.4205-0.08567 2.457l1.3437 1.0708c-0.23981 2.0843 0.61771 4.8403 0.76113 4.9889-0.48013-0.86774-0.73122-1.318 0.7153-3.4619z" stroke-miterlimit="0"/>
        <g stroke-width="1px">
            <path d="m9.3025 14.034 1.5945 0.09969-0.28327 2.3635s-0.9979 2.3093-0.9979 2.2279c0-0.08143-0.02881 1.3368-0.02881 1.3368l0.04108-1.2865 0.62904 0.5034 0.71545 2.1599c0.70316-0.0023 1.4937-0.20658 1.6181 1.1289l-0.06266-0.73019c-0.6713-0.1333-0.42251-0.39792-0.53018-0.61167-0.40158 0.10011-0.84375 0.46008-1.0426-0.73818 7.28e-4 -1.1887 0.74553-1.5249 1.9565-1.327 0.21573 0.25342 0.59362 0.39555 0.49672 0.86354l-0.20395-0.94026 0.77263-0.91434c0.20918-0.49049 0.54756-0.84359 1.2364-0.82411 0.36988-0.3796 0.6489-0.35378 0.87696-0.10062 0 0-0.41924-0.6432-0.42368-0.73068-0.01287-0.25365 1.374-0.69768 1.4061 0.15378l-0.78415-1.6972c0.09346 0.7657-0.03764 1.2921-0.95702 0.9784-0.53976-0.24166-0.58409 0.07266-0.36564 0.68186-0.0422-0.23464-0.05077-0.45048-0.32802-0.81656-0.97439-0.39504-0.45331-0.84284-0.02815-1.2873 0.31366-0.47221 0.52308-0.42992 0.68642-0.16022-0.52815-0.59358-0.18652-0.66397 0.72146-0.39368l-0.46128-0.31611-1.1715 0.09327-0.54168 0.48103-0.8754-0.76689-0.79753 0.13826-0.95789-0.58564"/>
            <path d="m18.509 11.823c0.37623 0.92329 1.0078 1.7661 0.4716 2.8718 0.13803-0.61856 0.69186-0.75489 1.4022-0.7097 1.1296-0.53724 0.73877-1.0216 0.94804-1.3922-0.36301-0.34575-0.1242-0.67624-0.19072-1.093"/>
            <path d="m26.414 19.834c0.10937 0.95524 0.39318 1.8843 0.91816 2.7772l1.0444 0.24728-1.2005 1.3705 0.08014 1.6941-0.79684 1.5913-1.0343 1.0368-0.5684-2.1941c0.1435-0.68731 0.59891-1.3302-0.43508-2.1853l-0.15614-1.0791-1.2551-0.34755c-0.78682 0.5259-1.3443 0.27936-1.7449-0.49597 0.0019-0.53485-0.10407-1.117 0.3178-1.4678 0.14111-0.47848 0.4056-0.9017 0.95425-1.1977l1.0766-0.44067c0.48147 0.50874 0.93023 1.0834 1.9097 0.58807z"/>
            <path d="m37.573 13.39-2.5555 0.18284c-0.8211 0.0622-1.6422 0.28437-2.4633-0.16234l-1.4386-0.2052c-0.51313 0.20466-1.0738 0.17162-1.2381 0.67543 3.45e-4 0.30347-0.18452 0.02982-0.40404 0.35496l-0.38841-0.08568c-0.0039-0.01689-1.2198 0.31353-2.4244 1.0221l-0.7977-0.69814 0.02951-0.1806c-0.62104-0.22905-0.50567-0.01144-0.96451 0.12601-0.17158 0.25196-0.25098 0.44996-0.7358 0.88531 0 0 0.20741 0.22556 0.21127 0.04628-0.02287-0.17545 0.39584-0.73765 0.4146-0.74034l0.81274 0.38084 0.14587 0.92069-0.98295 0.64324-0.74051-0.26663-0.57219 0.64469-0.59614-0.2108-0.09069 0.93102-0.6872 0.23106-0.1069 0.70422 0.676 0.03267 0.5673-0.72312 0.68766-0.44217 0.51575 0.84428-0.07312-0.87511 0.65386 0.21299 0.25387 0.76863 0.97651-1.3703 1.3719 0.68497-1.2097 0.46467-0.13816 0.50835 0.9385 0.02185 1.0113 3.2353 1.153-1.0846-1.3485-1.6111 2.9086 0.49454c1.373 0.93318 1.4591 1.7536 1.4521 2.5659-0.2871-1.2257 0.64834-1.8917 1.101-2.4763 0.49932 0.67211 1.2581 0.78646 1.791 1.7606 0.99218 0.3488 0.55109 0.35272 0.40285 0.0134-0.71906-0.4957-0.57178-0.67356-0.82849-0.99963 0.51823-0.38463 0.889-0.79452 1.5395-0.79944 0.07924-0.58809-1.1634-1.0526-0.8517-1.8018l0.44923-0.62533c0.12814-0.13609 1.5969 0.66226 1.3058 0.89298-0.0929 0.07364-0.717-0.9661-0.717-1.0949 0.64775-0.5564 1.0128-1.1-0.34022-1.5662-0.91553-0.32778-0.75605-0.71022-0.41037-1.1021-0.11877-0.05856 0.78689-0.5922 0.92349-0.3889 0.07741 0.1152 1.1712-0.24974 1.1712-0.24974l-0.02623 0.86942c0.40915 0.47892 0.55799 0.5459 0.67568 0.56358"/>
            <path d="m36.727 28.756c0.5459 0.02695 1.0299-0.31257 1.4919-0.20384 0.84653 0.80475 0.73357 1.1061 0.9865 1.0572l0.83012-1.0353c0.09798-0.55841 0.05137-1.0951-0.03471-1.6259l-1.2891-0.34343c-0.536 0.4688-0.93515 0.66446-1.9293 1.2562z"/>
            <path d="m35.081 22.814c-0.07553 1.268 0.57451 1.8623 1.3007 2.3858"/>
        </g>
    </g>
</svg>
