<?xml version="1.0" encoding="UTF-8"?>
<svg version="1.1" viewBox="0 0 48 48" xmlns="http://www.w3.org/2000/svg">
    <path transform="rotate(43.538)" d="m26.946 2.3986h1.6772v3.6267h-1.6772zm1.6697 4.8967-0.08727 1.3419-5.4074-0.35167 0.08727-1.3419zm3.2211-16.892 0.0063 1.3447-5.4188 0.025308-0.0063-1.3447zm-5.2888 2.6273 1.6405-0.083821 0.15341 3.0023-1.6405 0.083821zm18.317 8.6756 1.0204 1.2721-3.7051 2.9722-1.0204-1.2721zm-7.1027-3.9499 2.0731-0.051148 0.19742 8.0017-2.0731 0.051148zm3.7941 2.2145 0.1027-1.9175 9.2882 0.4975-0.1027 1.9175zm-14.692 1.1254 0.07648-3.7331 9.5466 0.19558-0.07648 3.7331zm-1.7606-3.2069a2.1455 2.1455 0 0 1-0.07744 3.0332 2.1455 2.1455 0 0 1-3.0332-0.077434 2.1455 2.1455 0 0 1 0.07744-3.0332 2.1455 2.1455 0 0 1 3.0332 0.077435z" fill="none" stroke="#fff" stroke-linecap="round" stroke-linejoin="round"/>
</svg>
