<?xml version="1.0" encoding="UTF-8"?>
<svg viewBox="0 0 48 48" xmlns="http://www.w3.org/2000/svg">
    <defs>
        <style>.a{fill:none;stroke:#fff;stroke-linecap:round;stroke-linejoin:round;}.b{fill:#fff;}</style>
    </defs>
    <path class="a" d="M12.7,8.71V6.39h5.16V8.31L19,9.65h-3.6Z"/>
    <path class="a" d="M35,8.71V6.39H29.79V8.31L28.6,9.65h3.61Z"/>
    <path class="a" d="m22 9.62h3.62l2-2.06a4.66 4.66 0 0 0 0-1.18h-7.58v1.13z"/>
    <rect class="a" x="11.68" y="37.67" width="12.07" height="2.39"/>
    <rect class="a" x="23.75" y="37.67" width="12.07" height="2.39"/>
    <rect class="a" x="9.11" y="40.06" width="14.64" height="2.44"/>
    <rect class="a" x="23.75" y="40.06" width="14.64" height="2.44"/>
    <path class="a" d="M7.8,5.5H5.5C6,11.92,9.44,16.07,15,19.08V16.14A13.82,13.82,0,0,1,7.8,5.5Z"/>
    <path class="a" d="m42.49 10.08v5.44c-2.38 4.36-5.61 7.09-10 7.23v-2.38c5.98-0.07 8.42-7.12 10-10.29z"/>
    <path class="a" d="m42.5 19.23v5.44c-3.26 7.63-7.28 9-10 6.59v-3.18c4.39 6.38 8.5-5.6 10-8.85z"/>
    <path class="a" d="M17,11.32H15.8v25.4h16V11.35H29.42a1.29,1.29,0,0,1-2.58,0H18.37c.52,2.48,1.36,4.44,3.2,4.83,0-1.75.88-3.49,2.29-3.52s2.19,1.83,2.25,3.1c0,1-.54,2.44-1.6,2.68l0,.33c1.32.49,3.89-1.15,3.89,7.93h-2L26,34.2H21.66l-.34-7.59H19.14c0-9.55,3-7.13,4.08-7.83v-.46L22,17.39C18.83,17.49,17.75,14.6,17,11.32Z"/>
    <ellipse class="b" cx="27.68" cy="16.54" rx=".75" ry=".74"/>
    <ellipse class="a" cx="29.79" cy="14.35" rx=".99" ry=".98"/>
</svg>
