<?xml version="1.0" encoding="UTF-8"?>
<svg version="1.1" viewBox="0 0 48 48" xmlns="http://www.w3.org/2000/svg">
    <defs>
        <style>.a{fill:none;stroke:#fff;stroke-linecap:round;stroke-linejoin:round;}</style>
    </defs>
    <path d="m18.261 5v38" fill="none" stroke="#fff" stroke-linecap="round" stroke-linejoin="round" stroke-width="1px"/>
    <path d="m30.674 5v38" fill="none" stroke="#fff" stroke-linecap="round" stroke-linejoin="round" stroke-width="1px"/>
    <g transform="matrix(.97436 0 0 .97688 .24524 .16017)" fill="none" stroke="#fff" stroke-linecap="round" stroke-linejoin="round" stroke-width="1.025">
        <line class="st0" x1="9.5649" x2="13.66" y1="15.116" y2="15.116"/>
        <line class="st0" x1="9.5649" x2="11.612" y1="8.0529" y2="6.9269"/>
        <line class="st0" x1="11.612" x2="11.612" y1="6.9269" y2="15.116"/>
    </g>
    <path class="st0" d="m34.722 14.228c0.60369 0.5 1.1068 0.7 2.4147 0.7h0.30184c1.4086 0 2.616-1.2 2.616-2.6v0c0-1.4-1.2074-2.6-2.616-2.6h-2.7166v-2.8h5.3326" fill="none" stroke="#fff" stroke-linecap="round" stroke-linejoin="round" stroke-miterlimit="10"/>
    <path d="m25.661 28.082v-8.0001c-1.4423 1.8-2.8845 3.6-4.3268 5.4001h5.3331" fill="none" stroke="#fff" stroke-linecap="round" stroke-linejoin="round"/>
    <g transform="matrix(.96493 0 0 .96482 1.2815 .70046)" fill="none" stroke="#fff" stroke-linecap="round" stroke-linejoin="round" stroke-width="1.0364">
        <ellipse class="st0" cx="37.419" cy="25.616" rx="2.7639" ry="2.7639"/>
        <path class="st0" d="m39.876 21.112c-0.40947-0.6142-1.126-1.0237-2.2521-1.0237h-0.20473c-1.5355 0-2.7639 1.2284-2.7639 2.7639v2.7639"/>
    </g>
    <path d="m43 17.865h-38" fill="none" stroke="#fff" stroke-linecap="round" stroke-linejoin="round" stroke-width="1px"/>
    <path d="m43 30.634h-38" fill="none" stroke="#fff" stroke-linecap="round" stroke-linejoin="round" stroke-width="1px"/>
</svg>
