<?xml version="1.0" encoding="UTF-8"?>
<svg version="1.1" viewBox="0 0 48 48" xmlns="http://www.w3.org/2000/svg">
    <defs>
        <style>.a{fill:none;stroke:#fff;stroke-linecap:round;stroke-linejoin:round;}</style>
    </defs>
    <g fill="none" stroke="#fff" stroke-linecap="round" stroke-linejoin="round" stroke-width="1px">
        <path d="m8.3968 37.256h31.342c3.3381 0 3.314 4.5275 0 4.5275h-31.342c-3.6482 0-3.5096-4.5275 0-4.5275z"/>
        <path d="m42.402 39.528-3.3586-31.311c-0.18389-0.87924-0.6006-2.1167-2.5795-2.1167h-24.864c-1.9606 0-2.6109 1.0935-2.7418 2.0583l-3.1384 31.223"/>
        <path d="m6.4668 32.316c0.47775-0.80671 1.0934-1.6223 2.555-1.6223h30.216c1.099 0 1.7992 0.57582 2.4208 1.6088"/>
        <path d="m24.791 22.914c5.5053 0.24128 13.959-6.2244 3.1257-10.438-8.7099-2.6484-17.102 3.9868-11.657 8.1421l2.4042-2.6989-4.0676 0.04646"/>
        <path d="m17.866 39.619h11.998"/>
    </g>
</svg>
