<?xml version="1.0" encoding="UTF-8"?>
<svg version="1.1" viewBox="0 0 48 48" xmlns="http://www.w3.org/2000/svg">
    <defs>
        <style>.a{fill:none;stroke:#fff;stroke-linecap:round;stroke-linejoin:round;}</style>
    </defs>
    <g fill="none" stroke="#fff" stroke-linecap="round" stroke-linejoin="round" stroke-opacity=".97071" stroke-width="1px">
        <path d="m25.815 23.298c2.1537-0.0052 2.0741 3.6601 0.1034 3.7314-2.7952 0.10107-2.1985-3.7263-0.1034-3.7314z"/>
        <path d="m29.639 24.282c-2.2592-2.8558-6.6286-1.6767-7.3325 2.5449 0.93096 1.7728 7.0705 1.0645 7.3325-2.5449z"/>
        <path d="m31.58 28.211c-1.7791 3.4009-4.8454 5.886-8.5101 7.9453-1.6841 1.3834-3.1443 0.75798-4.5567-0.29676-1.3209-0.77957-2.3873-1.7248-3.3961-2.7074-2.1532-1.7211-1.9532-3.4728-2.0278-4.5001"/>
        <path d="m30.017 42.282c2.1261-1.4039 2.2388-2.0716 1.8493-2.5557 1.047-0.48847 1.504-1.8026 1.6045-3.6155 1.2365-0.11268 2.0205-0.96976 1.7386-3.5809 1.4878-0.12726 1.7406-1.6192 1.6125-3.5321 4.7395-13.161-1.141-21.61-10.287-22.887-7.5211-2.5058-15.002 3.3483-15.923 5.8478-2.6917 3.6055-3.0006 6.8256-3.083 10.009-0.061434-1.0498-0.10981-2.0946 1.0367-2.6713-0.35722 5.4933 1.4192 6.9906 2.8138 9.2032l-0.50429-2.6249 2.9488 4.1376c-0.65616-1.9231-1.6539-2.2026-1.9407-5.903 0.15172-1.0533 0.95276-1.2197 2.0242-1.0168 1.9333-1.3601 3.1372-3.2148 4.2592-5.1249-1.0006 1.6578-1.4266 3.484-1.038 5.549 0.18373-2.7228 5.7091-5.8628 7.0544-9.8574 1.7452 2.3192 2.4148 4.8733 3.0832 7.4278 0.07798-1.034 0.15445-2.0604 0.25589-3.2119 1.4538 1.6448 1.8338 3.5682 2.0397 5.5369 0.46334-1.3774 1.045-2.6901 0.35973-4.6957 0.97381 3.6308 1.8017 7.1327-1.6312 11.356 1.8987-1.2451 3.12-3.1374 4.3751-4.9975l-1.0847 3.1366c0.69054 0.39655 7.133-1.2691 3.2976-6.2016-0.35054 2.607-1.9716 4.9734-3.202 7.4137-0.57816 1.3732-2.2977 2.7605-3.5499 4.142 0 0-0.36244 1.6029 0.01668 1.6456 0.37913 0.04273 1.3794-1.9491 1.3794-1.9491 1.0774 0.44821 0.27257 1.1147 0.32678 1.6816l0.94424-3.0389c-0.61185 1.5544-0.02701 1.9753 0.28854 2.6512-1.1641 1.3356-1.7503 2.4994-1.4088 3.3875-1.2122 0.14989-1.7576 1.1891-1.7034 3.0278-0.90689 0.67231-0.46082 0.87028-0.5178 1.2446"/>
        <path d="m18.513 35.86c1.1224 2.0529 0.3413 2.9629-0.86486 3.6175 0.76416 1.455-0.17297 1.6687-0.92593 2.0169l-0.52042 1.0057"/>
        <path d="m16.892 34.812c-1.0429 0.81484-2.2606 1.5242-1.3591 3.5134-0.65959 0.54278-2.0015 0.55994-0.98368 2.3949-0.76322 0.27474-1.1009 0.7932-1.1709 1.4649"/>
        <path d="m18.331 32.514c2.6939 1.7122 4.1707 0.34841 5.601-0.71024"/>
        <path d="m20.508 30.459c-1.0455 0.08441-1.6792-0.07081-1.5128-0.69164"/>
        <path d="m17.947 26.65c0.31405-1.6579-1.8373-2.7432-4.0402-3.5571-1.5278-0.56453-2.6887 1.7216-1.8057 2.7904 1.0698 1.2948 5.5696 2.2251 5.8459 0.76672z"/>
        <path d="m16.88 24.531c-2.0895-1.8193-4.0623 1.9488-1.6201 2.7042"/>
        <path d="m27.423 21.296c-2.2302-0.17358-4.7307-0.03263-6.1222-1.1822"/>
    </g>
</svg>
