<?xml version="1.0" encoding="UTF-8" standalone="no"?>
<svg
   xmlns:dc="http://purl.org/dc/elements/1.1/"
   xmlns:cc="http://creativecommons.org/ns#"
   xmlns:rdf="http://www.w3.org/1999/02/22-rdf-syntax-ns#"
   xmlns:svg="http://www.w3.org/2000/svg"
   xmlns="http://www.w3.org/2000/svg"
   xmlns:sodipodi="http://sodipodi.sourceforge.net/DTD/sodipodi-0.dtd"
   xmlns:inkscape="http://www.inkscape.org/namespaces/inkscape"
   viewBox="0 0 48 48"
   version="1.1"
   id="svg8"
   sodipodi:docname="wiseradar.svg"
   inkscape:version="1.0.2 (e86c870879, 2021-01-15)">
  <metadata
     id="metadata12">
    <rdf:RDF>
      <cc:Work
         rdf:about="">
        <dc:format>image/svg+xml</dc:format>
        <dc:type
           rdf:resource="http://purl.org/dc/dcmitype/StillImage" />
        <dc:title></dc:title>
      </cc:Work>
    </rdf:RDF>
  </metadata>
  <sodipodi:namedview
     pagecolor="#595959"
     bordercolor="#666666"
     borderopacity="1"
     objecttolerance="10"
     gridtolerance="10"
     guidetolerance="10"
     inkscape:pageopacity="0"
     inkscape:pageshadow="2"
     inkscape:window-width="3840"
     inkscape:window-height="2096"
     id="namedview10"
     showgrid="false"
     showguides="true"
     inkscape:guide-bbox="true"
     inkscape:zoom="39.0625"
     inkscape:cx="24"
     inkscape:cy="24"
     inkscape:window-x="0"
     inkscape:window-y="27"
     inkscape:window-maximized="1"
     inkscape:current-layer="svg8"
     inkscape:document-rotation="0" />
  <defs
     id="defs4">
    <style
       id="style2">.a{fill:none;stroke:#fff;stroke-linecap:round;stroke-linejoin:round;}</style>
  </defs>
  <path
     style="fill:none;stroke:#ffffff;stroke-width:1px;stroke-linecap:round;stroke-linejoin:round;stroke-opacity:1"
     d="m 23.447555,35.700044 1.177058,-5.214914 c -4.75393,1.577947 -8.632793,0.408527 -12.32434,-1.348994 1.592801,-0.700893 3.79286,-0.870818 6.075509,-0.968529 -1.791105,-0.966993 -3.741654,-1.960414 -5.032397,-3.100978 0.05412,-1.146314 0.248253,-3.632841 -0.535886,-6.437039 2.962157,0.889491 5.918085,1.705596 8.968412,3.633869 -0.209179,-1.91889 -0.335593,-3.885944 -0.862432,-5.619984 l 2.167487,0.573183 c 0.750609,-1.791161 1.507227,-3.242664 2.26519,-4.618248 0.774073,1.724631 1.264319,3.448988 1.606279,5.173199 l 2.291031,-0.92708 c -0.250031,1.595261 -0.534671,3.422882 -0.813388,5.210737 l 8.651856,-2.892983 c -0.337141,3.310379 -0.660537,6.623526 -4.421947,9.243895 1.912007,0.154082 3.401974,0.620606 4.682456,1.042861 -3.524261,1.782956 -8.042102,1.618073 -12.738826,1.102503"
     id="path7682"
     sodipodi:nodetypes="ccccccccccccccccc" />
  <circle
     style="fill:none;fill-opacity:1;stroke:#ffffff;stroke-width:1;stroke-linecap:round;stroke-linejoin:round;stroke-miterlimit:4;stroke-dasharray:none;stroke-opacity:1"
     id="path7684"
     cx="24"
     cy="24"
     r="21.5" />
  <circle
     style="fill:none;fill-opacity:1;stroke:#ffffff;stroke-width:1;stroke-linecap:round;stroke-linejoin:round;stroke-miterlimit:4;stroke-dasharray:none;stroke-opacity:1"
     id="path7684-6"
     cx="24"
     cy="24"
     r="18.092918" />
  <path
     style="fill:none;stroke:#ffffff;stroke-width:1px;stroke-linecap:round;stroke-linejoin:round;stroke-opacity:1"
     d="M 24.636258,24.868406 15.918807,10.637338"
     id="path7701" />
  <path
     style="fill:none;fill-opacity:1;stroke:#ffffff;stroke-width:1;stroke-linecap:round;stroke-linejoin:round;stroke-miterlimit:4;stroke-dasharray:1, 2;stroke-dashoffset:0;stroke-opacity:1"
     id="path7684-6-8"
     sodipodi:type="arc"
     sodipodi:cx="24"
     sodipodi:cy="24"
     sodipodi:rx="15.786626"
     sodipodi:ry="15.786626"
     sodipodi:start="4.1762115"
     sodipodi:end="5.6700884"
     sodipodi:arc-type="arc"
     d="m 15.935345,10.428748 a 15.786626,15.786626 0 0 1 20.976062,4.487579"
     sodipodi:open="true" />
</svg>
