<?xml version="1.0" encoding="UTF-8"?>
<svg version="1.1" viewBox="0 0 48 48" xmlns="http://www.w3.org/2000/svg">
    <defs>
        <style>.a{fill:none;stroke:#fff;stroke-linecap:round;stroke-linejoin:round;}</style>
    </defs>
    <path d="m23.448 35.7 1.1771-5.2149c-4.7539 1.5779-8.6328 0.40853-12.324-1.349 1.5928-0.70089 3.7929-0.87082 6.0755-0.96853-1.7911-0.96699-3.7417-1.9604-5.0324-3.101 0.05412-1.1463 0.24825-3.6328-0.53589-6.437 2.9622 0.88949 5.9181 1.7056 8.9684 3.6339-0.20918-1.9189-0.33559-3.8859-0.86243-5.62l2.1675 0.57318c0.75061-1.7912 1.5072-3.2427 2.2652-4.6182 0.77407 1.7246 1.2643 3.449 1.6063 5.1732l2.291-0.92708c-0.25003 1.5953-0.53467 3.4229-0.81339 5.2107l8.6519-2.893c-0.33714 3.3104-0.66054 6.6235-4.4219 9.2439 1.912 0.15408 3.402 0.62061 4.6825 1.0429-3.5243 1.783-8.0421 1.6181-12.739 1.1025" fill="none" stroke="#fff" stroke-linecap="round" stroke-linejoin="round" stroke-width="1px"/>
    <circle cx="24" cy="24" r="21.5" fill="none" stroke="#fff" stroke-linecap="round" stroke-linejoin="round"/>
    <circle cx="24" cy="24" r="18.093" fill="none" stroke="#fff" stroke-linecap="round" stroke-linejoin="round"/>
    <path d="m24.636 24.868-8.7175-14.231" fill="none" stroke="#fff" stroke-linecap="round" stroke-linejoin="round" stroke-width="1px"/>
    <path d="m15.935 10.429a15.787 15.787 0 0 1 20.976 4.4876" fill="none" stroke="#fff" stroke-dasharray="1, 2" stroke-linecap="round" stroke-linejoin="round"/>
</svg>
