<?xml version="1.0" encoding="UTF-8"?>
<svg version="1.1" viewBox="0 0 48 48" xmlns="http://www.w3.org/2000/svg">
    <defs>
        <style>.a{fill:none;stroke:#fff;stroke-linecap:round;stroke-linejoin:round;}</style>
    </defs>
    <path class="a" d="m24 4.5c-7.2294 0-13.09 5.8606-13.09 13.09 0 10.25 10 22.61 12.61 25.63 0.31904 0.36876 0.89096 0.36876 1.21 0 2.55-3 12.36-15.38 12.36-25.63 0-7.2294-5.8606-13.09-13.09-13.09z"/>
    <path d="m26.798 24.757c1.4379 0.26281 5.6898 0.33028 6.3993-0.13155 0.73552-0.47877 0.71404-1.8454-0.38879-2.604-0.63399-0.43609-1.402-0.02844-2.305-0.12585-0.66981-2.3336-2.525-2.4306-4.0377-1.2681-2.0065-2.8782-4.7389-3.0198-6.1037 0.19792-2.1257 1.2365-1.3412 3.0834-0.27402 3.6791 0.71894 0.40133 1.1188 0.36831 1.7016 0.33777 1.8221 1.5842 3.5068 0.85308 5.0083-0.08531z" fill="none" stroke="#fff" stroke-linecap="round" stroke-linejoin="round" stroke-width="1px"/>
    <path d="m26.865 18.541c-2.3406-2.7188-6.5173-2.2431-7.8579 1.3209-0.88285 0.30465-1.3678 0.95551-1.6625 1.7719-0.59335-0.94342-1.3838-0.85325-2.2206-0.51996 0.99779-1.5508 1.017-2.8531-1.3167-3.1741 2.1725-1.1056 1.7723-2.2072 0.14476-3.307 1.8598-0.28648 2.5164-1.6976 1.3133-3.2587 2.569 0.57831 2.4587-0.96618 2.5001-2.3904 2.1103 1.5598 2.6119 0.21181 3.0609-1.2313 1.5686 2.1258 2.4839 1.0875 3.3743-0.071183 0.88552 2.9541 1.9305 2.0538 3.0016 1.3901-0.19845 1.9169 0.1843 2.9784 2.5865 2.2987-1.411 1.9299-1.1014 3.0884 1.2901 3.3132-2.1592 1.0166-1.8163 2.1409-0.08595 3.38-0.6619-0.08876-1.1236 0.17481-1.533 0.53026-0.91734-0.34949-1.7914-0.42011-2.5949-0.05232z" fill="none" stroke="#fff" stroke-linecap="round" stroke-linejoin="round" stroke-width="1px"/>
</svg>
